<svg width="40" height="40" viewBox="0 0 40 40" fill="none" xmlns="http://www.w3.org/2000/svg">
<path d="M39.974 14.6105C39.9717 14.1924 39.7652 13.8018 39.421 13.5645C39.0482 13.3129 38.5772 13.2559 38.1552 13.4113L31.313 15.9896V12.1654L31.5195 12.3053C31.8492 12.5368 32.2426 12.6601 32.6454 12.6584C33.3066 12.6587 33.9252 12.332 34.2977 11.7857C34.9167 10.8762 34.6845 9.63752 33.778 9.01413L21.1196 0.353104C20.7865 0.123487 20.3916 0.000360885 19.987 0C19.5824 0.000360885 19.1875 0.123487 18.8544 0.353104L6.19597 9.01413C5.75571 9.3127 5.45264 9.77445 5.35386 10.2971C5.25507 10.8198 5.36872 11.3603 5.66964 11.799C6.04645 12.3422 6.66748 12.6639 7.32856 12.6584C7.73016 12.6587 8.12251 12.538 8.4545 12.312L8.66103 12.1654V16.1628L1.83214 13.4246C1.42185 13.2586 0.955934 13.3072 0.588712 13.5542C0.22149 13.8013 0.000895784 14.2145 0 14.6571V32.6454C0 33.3813 0.596565 33.9779 1.33247 33.9779H1.83214C2.57703 33.9732 3.2575 33.5546 3.59766 32.8919L4.15729 31.7793L5.32986 32.3256C4.93791 33.363 5.4151 34.5269 6.42249 34.9906C6.7001 35.1192 7.00262 35.1852 7.30858 35.1838C7.56861 35.1821 7.8261 35.1324 8.06808 35.0372C8.28555 35.5946 8.71064 36.0459 9.25398 36.2964C9.55947 36.4355 9.89101 36.5081 10.2267 36.5096C10.5042 36.51 10.7796 36.4604 11.0395 36.363C11.2504 36.9529 11.6898 37.4331 12.2587 37.6955C12.5632 37.8376 12.8954 37.9104 13.2314 37.9087C13.4712 37.9073 13.7094 37.8691 13.9376 37.7954V37.8287C14.1207 38.3272 14.4947 38.7323 14.9769 38.9546C15.8519 39.3548 16.8877 39.0748 17.442 38.2884L19.021 39.5609C19.6074 40.004 20.3782 40.1205 21.0694 39.8704C21.7605 39.6203 22.2783 39.0375 22.4454 38.3217C23.1589 38.5294 23.9287 38.3242 24.4441 37.7887C24.7781 37.4594 24.9856 37.0231 25.0304 36.5562C25.1258 36.5624 25.2215 36.5624 25.3169 36.5562C26.533 36.559 27.5663 35.6676 27.7419 34.4642C28.0061 34.5535 28.2826 34.6007 28.5614 34.6041C29.2387 34.6059 29.8888 34.3377 30.3677 33.8587C30.8466 33.3798 31.1149 32.7298 31.1131 32.0525C31.1111 31.7182 31.0432 31.3877 30.9132 31.0798L35.1505 29.3143L36.3896 31.6061C36.7401 32.2465 37.4118 32.645 38.1418 32.6454H38.6415C39.3596 32.6459 39.9488 32.0772 39.974 31.3596V14.6105ZM7.70165 11.2127C7.39809 11.4206 6.9835 11.343 6.77559 11.0395C6.6756 10.891 6.63959 10.7085 6.67565 10.5331C6.70866 10.363 6.80664 10.2125 6.94881 10.1134L19.6072 1.45239C19.7174 1.37216 19.8507 1.33006 19.987 1.33247C20.1228 1.33279 20.2553 1.37463 20.3667 1.45239L33.0252 10.1134C33.3246 10.321 33.4017 10.7305 33.1984 11.0328C32.9905 11.3364 32.5759 11.4139 32.2723 11.206L20.3667 3.06467C20.1384 2.90624 19.8356 2.90624 19.6072 3.06467L7.70165 11.2127ZM19.987 4.41713L29.9805 11.2593V16.6558C29.2965 17.2172 29.1114 18.1872 29.5408 18.961L30.207 20.2002L28.4082 20.8664C27.7934 21.1053 27.1004 21.0255 26.556 20.6532L23.3182 18.2614V14.6571C23.3182 13.9212 22.7216 13.3247 21.9857 13.3247H17.9883C17.2524 13.3247 16.6558 13.9212 16.6558 14.6571V19.0076C16.4039 19.3575 16.1811 19.7274 15.9896 20.1136C15.2696 20.1794 14.555 20.2951 13.851 20.46C13.4595 20.5573 13.0606 20.622 12.6584 20.6532C11.7753 20.5479 10.9155 20.298 10.1134 19.9137L10.4332 19.2475C10.8478 18.4408 10.6673 17.4562 9.99349 16.849V11.2593L19.987 4.41713ZM21.9857 17.3554C20.7025 16.6977 19.1591 16.8134 17.9883 17.6552V14.6571H21.9857V17.3554ZM1.83214 32.6454H1.33247V14.6571L8.9142 17.7351C9.08593 17.8044 9.2211 17.9419 9.28729 18.1149C9.35699 18.2982 9.34237 18.5029 9.24731 18.6745L2.41176 32.2923C2.29748 32.507 2.07531 32.6423 1.83214 32.6454ZM6.95547 33.758C6.56268 33.5769 6.39001 33.1125 6.56906 32.7187L7.32856 31.1197C7.50971 30.727 7.97413 30.5543 8.36789 30.7333C8.55832 30.8174 8.70544 30.9766 8.77429 31.173C8.85389 31.3673 8.85389 31.5851 8.77429 31.7793L7.9948 33.3783C7.90794 33.567 7.74934 33.7133 7.5542 33.7846C7.35907 33.8559 7.14354 33.8463 6.95547 33.758ZM10.5465 35.0905C10.3038 35.1934 10.0297 35.1934 9.78696 35.0905C9.54469 34.9826 9.35698 34.7804 9.2673 34.5309C9.16767 34.2852 9.16767 34.0104 9.2673 33.7647L10.4132 31.313C10.5236 31.0725 10.7249 30.8856 10.9729 30.7933C11.0842 30.754 11.2013 30.7338 11.3193 30.7333C11.4637 30.7325 11.6067 30.762 11.739 30.8199C11.9799 30.9331 12.1666 31.1365 12.2587 31.3862C12.362 31.6312 12.362 31.9075 12.2587 32.1524L11.1128 34.5775C10.9996 34.8184 10.7962 35.0051 10.5465 35.0972V35.0905ZM12.8117 36.423C12.3111 36.1879 12.0916 35.5948 12.3186 35.0905L13.1581 33.3117C13.2703 33.0725 13.4709 32.8861 13.7177 32.792C13.829 32.7527 13.9462 32.7325 14.0642 32.732C14.2095 32.7295 14.3533 32.7615 14.4839 32.8253C14.7257 32.9338 14.9132 33.1358 15.0036 33.3849C15.0963 33.6344 15.0843 33.9107 14.9703 34.1511L14.1974 35.8433L14.1441 35.9566C14.0339 36.1997 13.8311 36.3885 13.5808 36.4811C13.3305 36.5737 13.0535 36.5624 12.8117 36.4496V36.423ZM15.5366 37.6755C15.3762 37.6019 15.2516 37.4677 15.1901 37.3024C15.1216 37.1382 15.1216 36.9535 15.1901 36.7894L15.3966 36.343L16.0162 35.0105C16.1363 34.7708 16.3883 34.6265 16.6558 34.6441C16.7523 34.6436 16.8478 34.6641 16.9356 34.7041C17.0996 34.7767 17.2274 34.9123 17.2901 35.0804C17.3528 35.2484 17.3451 35.4346 17.2688 35.5968L16.436 37.4023C16.3597 37.5645 16.2213 37.6891 16.0521 37.748C15.8829 37.8069 15.697 37.7952 15.5366 37.7155V37.6755ZM29.4208 32.8853C28.9704 33.34 28.2441 33.3662 27.7619 32.9452L24.524 30.1071L23.7579 29.4408C23.6907 29.3801 23.6111 29.3346 23.5247 29.3076C23.4915 29.3043 23.458 29.3043 23.4248 29.3076C23.2899 29.2816 23.1503 29.2978 23.025 29.3542C22.9477 29.3956 22.8779 29.4497 22.8185 29.5141C22.7012 29.6401 22.641 29.8088 22.6519 29.9805C22.6491 30.0004 22.6491 30.0206 22.6519 30.0404C22.6738 30.1912 22.7467 30.33 22.8585 30.4335L26.0364 33.2184C26.489 33.6415 26.5128 34.3514 26.0897 34.804C25.6665 35.2566 24.9566 35.2805 24.504 34.8573L24.4308 34.784L21.7658 32.1191C21.5046 31.8579 21.081 31.8579 20.8198 32.1191C20.5585 32.3803 20.5585 32.8039 20.8198 33.0651L23.4847 35.7301C23.6255 35.869 23.7047 36.0586 23.7047 36.2564C23.7047 36.4542 23.6255 36.6438 23.4847 36.7827C23.1871 37.0628 22.723 37.0628 22.4254 36.7827L21.8524 36.2031L21.1063 35.4569C20.9812 35.3308 20.8109 35.2599 20.6332 35.2599C20.4556 35.2599 20.2853 35.3308 20.1602 35.4569C20.0341 35.582 19.9631 35.7523 19.9631 35.93C19.9631 36.1076 20.0341 36.2779 20.1602 36.403L20.9064 37.1492C21.0699 37.3055 21.1616 37.5225 21.1596 37.7488C21.1457 38.0577 20.9656 38.3349 20.689 38.4733C20.4124 38.6116 20.0826 38.5893 19.8271 38.415L18.0549 37.0426L18.468 36.1365C18.694 35.6536 18.7176 35.1004 18.5337 34.5999C18.3498 34.0994 17.9735 33.6932 17.4886 33.4715C17.134 33.3113 16.7404 33.2581 16.356 33.3183C16.3329 33.1849 16.2995 33.0535 16.2561 32.9252C15.864 31.8505 14.7464 31.2224 13.6245 31.4462C13.5398 30.7401 13.1367 30.1115 12.5302 29.7401C11.9237 29.3687 11.1806 29.2953 10.5132 29.5408C10.1885 29.664 9.89501 29.8573 9.65372 30.1071C9.45566 29.8546 9.19972 29.6535 8.90754 29.5208C7.84598 29.03 6.58754 29.4922 6.09603 30.5534L5.84953 31.0998L4.7569 30.5801L9.51381 21.1063C10.5033 21.5791 11.5672 21.8766 12.6584 21.9857C13.1464 21.9561 13.6305 21.8802 14.1042 21.7592C14.4772 21.6792 14.877 21.5993 15.2967 21.5327L14.2041 23.9844C13.6952 25.1447 14.1881 26.5 15.3234 27.0624H15.39C15.7019 27.2119 16.0434 27.2893 16.3893 27.2889C17.0732 27.2918 17.7247 26.9976 18.1748 26.4828L20.8065 23.5513L29.3676 31.1531C29.6201 31.3749 29.7692 31.6916 29.7793 32.0276C29.7894 32.3635 29.6596 32.6886 29.4208 32.9252V32.8853ZM30.0871 29.9605L20.4267 21.486C20.1489 21.2623 19.7443 21.297 19.5086 21.5647C19.273 21.8325 19.2901 22.2383 19.5473 22.4854L19.7871 22.6986L17.1622 25.6233C16.8495 25.9805 16.3365 26.0842 15.9096 25.8765H15.863C15.3961 25.6112 15.2038 25.037 15.4166 24.544L16.9623 21.1196C17.3267 20.3107 17.8501 19.5835 18.5013 18.981C19.3853 18.1615 20.726 18.0833 21.6992 18.7944L25.7566 21.7525C26.6598 22.4008 27.8268 22.5557 28.8679 22.1656L30.8666 21.4261L34.5109 28.1617L30.0871 29.9605ZM38.1552 31.293C37.9166 31.2991 37.6929 31.1771 37.5689 30.9732L30.7267 18.3147C30.6529 18.1822 30.6407 18.024 30.6934 17.8817C30.7572 17.7194 30.8885 17.5929 31.0531 17.5353L38.6415 14.6105V31.313L38.1552 31.293Z" fill="white"/>
<path d="M19.9872 11.992C21.459 11.992 22.6521 10.7988 22.6521 9.32704C22.6521 7.85524 21.459 6.66211 19.9872 6.66211C18.5154 6.66211 17.3223 7.85524 17.3223 9.32704C17.3223 10.7988 18.5154 11.992 19.9872 11.992ZM19.9872 7.99458C20.7231 7.99458 21.3197 8.59114 21.3197 9.32704C21.3197 10.0629 20.7231 10.6595 19.9872 10.6595C19.2513 10.6595 18.6547 10.0629 18.6547 9.32704C18.6547 8.59114 19.2513 7.99458 19.9872 7.99458Z" fill="white"/>
</svg>
