<svg width="50" height="50" viewBox="0 0 50 50" fill="none" xmlns="http://www.w3.org/2000/svg">
<path d="M1.36457 21.21C0.481242 18.824 -0.15841 16.3873 0.0345012 13.7982C0.15634 12.2041 0.755378 10.8436 1.923 9.72676C3.19215 8.52868 4.39022 7.26969 5.63907 6.0513C7.26358 4.4471 9.30437 4.45725 10.9289 6.0513C11.934 7.03616 12.9291 8.04133 13.9241 9.0465C14.8886 10.0111 15.8633 10.9756 16.8279 11.9503C18.5235 13.6662 18.5336 15.6664 16.838 17.3721C15.6197 18.5905 14.4114 19.819 13.1727 21.0171C12.8478 21.3319 12.8174 21.5958 12.99 21.9918C13.8022 23.9412 14.98 25.6774 16.2999 27.3019C18.9601 30.5713 21.9654 33.4751 25.5495 35.7189C26.3211 36.1961 27.1638 36.5515 27.9659 36.9881C28.3822 37.2115 28.6564 37.1404 28.9914 36.7952C30.1996 35.5463 31.4383 34.3178 32.677 33.0893C34.3015 31.4851 36.3322 31.4749 37.9567 33.0893C39.9467 35.059 41.9266 37.0389 43.8963 39.0289C45.5513 40.694 45.5411 42.7348 43.876 44.4101C42.749 45.5472 41.5611 46.6235 40.5051 47.8114C38.9619 49.5374 37.0124 50.106 34.799 49.9842C31.5703 49.8116 28.5954 48.7353 25.7221 47.3444C19.3459 44.2476 13.9038 39.9528 9.34498 34.531C5.97412 30.5104 3.19215 26.1445 1.36457 21.21ZM49.9984 24.8449C49.9984 11.1482 38.8502 0 25.1535 0V4.73139C36.2408 4.73139 45.267 13.7576 45.267 24.8449H49.9984ZM36.3931 24.8449H41.1245C41.1245 16.042 33.9563 8.87389 25.1535 8.87389V13.6053C28.1589 13.6053 30.9814 14.7729 33.1035 16.8949C35.2255 19.0169 36.3931 21.8395 36.3931 24.8449Z" fill="white"/>
</svg>
