<svg width="45" height="35" viewBox="0 0 45 35" fill="none" xmlns="http://www.w3.org/2000/svg">
<path d="M27.1175 13.927C24.4165 15.3578 21.2499 15.3578 18.642 13.927L4.01936 6.29574L0.666401 4.57872C1.87719 1.9078 4.57819 0 7.74487 0H37.9215C40.9951 0 43.6961 1.9078 45 4.57872L41.647 6.29574L27.1175 13.927Z" fill="white"/>
<path d="M17.033 16.8339C18.8315 17.8376 20.8099 18.3394 22.7882 18.3394C24.7666 18.3394 26.745 17.8376 28.5435 16.8339L41.403 9.50725L45 7.49994V26.5694C45 31.1862 41.5828 35.0001 37.4462 35.0001H8.2202C4.0836 35.0001 0.666401 31.1862 0.666401 26.5694V7.49994L4.26345 9.50725L17.033 16.8339Z" fill="white"/>
</svg>
