<svg width="29" height="20" viewBox="0 0 29 20" fill="none" xmlns="http://www.w3.org/2000/svg">
<path d="M16.4803 4.7619C16.9979 4.24431 17.3085 3.56108 17.3085 2.77433C17.3085 1.24224 16.0455 0 14.5135 0C13.5404 0 12.6708 0.496894 12.1739 1.24224C12.0497 1.38716 0.931677 15.0932 0.828157 15.2381C0.331263 15.7557 0 16.4389 0 17.2257C0 18.7578 1.26294 20 2.79503 20C3.76812 20 4.63768 19.5031 5.13458 18.7578C5.2588 18.6128 16.3768 4.90683 16.4803 4.7619Z" fill="white"/>
<path d="M22.9191 11.2629C23.4367 10.7453 23.7472 10.0621 23.7472 9.27535C23.7472 7.74326 22.4843 6.50102 20.9522 6.50102C19.9791 6.50102 19.1096 6.99792 18.6127 7.74326C18.4884 7.88819 12.6499 15.0725 12.5464 15.2381C12.0288 15.7557 11.7183 16.4389 11.7183 17.2257C11.7183 18.7578 12.9605 20 14.5133 20C15.4864 20 16.3559 19.5031 16.8528 18.7578C16.9771 18.6128 22.8156 11.4079 22.9191 11.2629Z" fill="white"/>
<path d="M29.0064 2.77433C29.0064 4.32712 27.7641 5.56936 26.232 5.56936C24.6792 5.56936 23.437 4.32712 23.437 2.77433C23.437 1.24224 24.6792 0 26.232 0C27.7641 0 29.0064 1.24224 29.0064 2.77433Z" fill="#ED7D3A"/>
<path d="M5.59006 2.77433C5.59006 4.32712 4.34783 5.56936 2.79503 5.56936C1.26294 5.56936 0 4.32712 0 2.77433C0 1.24224 1.26294 0 2.79503 0C4.34783 0 5.59006 1.24224 5.59006 2.77433Z" fill="#ED7D3A"/>
</svg>
