<svg width="35" height="41" viewBox="0 0 35 41" fill="none" xmlns="http://www.w3.org/2000/svg">
<path d="M32.5283 6.26226H29.16V2.89401C29.16 1.83533 28.2938 0.969238 27.2357 0.969238H2.69471C1.63611 0.969238 0.77002 1.83533 0.77002 2.89401V33.6899C0.77002 34.7485 1.63611 35.6147 2.69479 35.6147H6.06312V38.983C6.06312 40.0416 6.92881 40.9078 7.98789 40.9078H24.3478C25.4059 40.9078 26.9034 40.314 27.6737 39.5889L33.0505 34.5278C33.8218 33.8026 34.4522 32.3427 34.4522 31.2841L34.4531 8.18718C34.4531 7.12842 33.5869 6.26226 32.5283 6.26226ZM6.06296 8.1871V34.1711H2.69471C2.43394 34.1711 2.21358 33.9508 2.21358 33.69V2.89401C2.21358 2.63324 2.43394 2.41287 2.69471 2.41287H27.2357C27.496 2.41287 27.7169 2.63324 27.7169 2.89401V6.26234H7.98773C6.92866 6.26234 6.06296 7.12842 6.06296 8.1871ZM32.0611 33.4767L26.6843 38.5375C26.5742 38.641 26.4307 38.7425 26.2724 38.8391V34.4117C26.2724 34.0811 26.4057 33.7837 26.6256 33.5624C26.8474 33.3425 27.1448 33.2088 27.4754 33.2088H32.2897C32.215 33.3102 32.1386 33.4036 32.0611 33.4767ZM33.0085 31.2839C33.0085 31.4269 32.9824 31.5924 32.943 31.7651H27.4753C26.015 31.768 24.8317 32.9512 24.8287 34.4116V39.4058C24.657 39.4405 24.4915 39.464 24.3476 39.464H7.98773V39.4641C7.72641 39.4641 7.5066 39.2437 7.5066 38.9829V8.18703C7.5066 7.92626 7.72649 7.70589 7.98773 7.70589H32.5282C32.789 7.70589 33.0093 7.92626 33.0093 8.18703L33.0085 31.2839Z" fill="white"/>
<path d="M27.2357 12.999H13.2813C12.8824 12.999 12.5596 13.3219 12.5596 13.7208C12.5596 14.1197 12.8825 14.4426 13.2813 14.4426H27.2357C27.6342 14.4426 27.9575 14.1197 27.9575 13.7208C27.9575 13.3219 27.6342 12.999 27.2357 12.999Z" fill="white"/>
<path d="M27.2357 22.6228H13.2813C12.8824 22.6228 12.5596 22.9457 12.5596 23.3446C12.5596 23.7435 12.8825 24.0664 13.2813 24.0664H27.2357C27.6342 24.0664 27.9575 23.7435 27.9575 23.3446C27.9575 22.9456 27.6342 22.6228 27.2357 22.6228Z" fill="white"/>
<path d="M20.9803 27.4346H13.2813C12.8824 27.4346 12.5596 27.7574 12.5596 28.1563C12.5596 28.5553 12.8824 28.8781 13.2813 28.8781H20.9803C21.3787 28.8781 21.7016 28.5553 21.7016 28.1563C21.7016 27.7574 21.3787 27.4346 20.9803 27.4346Z" fill="white"/>
<path d="M27.2357 17.8108H13.2813C12.8824 17.8108 12.5596 18.1337 12.5596 18.5326C12.5596 18.9315 12.8825 19.2543 13.2813 19.2543H27.2357C27.6342 19.2543 27.9575 18.9315 27.9575 18.5326C27.9575 18.1337 27.6342 17.8108 27.2357 17.8108Z" fill="white"/>
</svg>
