<svg width="33" height="30" viewBox="0 0 33 30" fill="none" xmlns="http://www.w3.org/2000/svg">
<path d="M30.4118 14.714V4.50394C30.4118 2.02043 28.3913 0 25.9078 0H6.44684C3.96332 0 1.94289 2.02049 1.94289 4.50394V14.8457C0.739966 16.1033 0 17.8073 0 19.6808V27.4226C0 28.8438 1.15617 30 2.57735 30C3.99847 30 5.15464 28.8438 5.15464 27.4226V26.6231H27.3296V27.4226C27.3296 28.8438 28.4857 30 29.9069 30C31.328 30 32.4841 28.8438 32.4841 27.4226V19.6808C32.4841 17.741 31.6908 15.983 30.4118 14.714ZM6.44684 1.26891H25.9078C27.6917 1.26891 29.1429 2.72017 29.1429 4.50394V13.7154C28.7542 13.4762 28.3407 13.2738 27.907 13.1133V11.0034C27.907 9.13306 26.3853 7.61138 24.5149 7.61138H18.9997C17.8643 7.61138 16.8581 8.17268 16.2421 9.0318C15.6261 8.17268 14.62 7.61138 13.4845 7.61138H7.96934C6.09896 7.61138 4.57728 9.13299 4.57728 11.0034V13.1133C4.09503 13.2917 3.63765 13.5219 3.21187 13.797V4.50394C3.21181 2.72017 4.663 1.26891 6.44684 1.26891ZM7.00014 12.6807C6.6071 12.6807 6.2216 12.7138 5.84607 12.7764V11.0034C5.84607 9.83274 6.79851 8.88029 7.96921 8.88029H13.4844C14.6551 8.88029 15.6076 9.83274 15.6076 11.0034V12.6807H7.00014V12.6807ZM16.8765 11.0034C16.8765 9.83267 17.829 8.88023 18.9997 8.88023H24.5149C25.6856 8.88023 26.638 9.83267 26.638 11.0034V12.7763C26.2624 12.7137 25.877 12.6806 25.4839 12.6806H16.8765V11.0034ZM7.00014 13.9496H25.4839C28.6442 13.9496 31.2152 16.5206 31.2152 19.6808V21.5631H24.8518C24.5014 21.5631 24.2174 21.8472 24.2174 22.1975C24.2174 22.5479 24.5014 22.832 24.8518 22.832H31.2152V25.3543H1.26891V22.832H18.5073C18.8577 22.832 19.1417 22.5479 19.1417 22.1975C19.1417 21.8472 18.8577 21.5631 18.5073 21.5631H1.26891V19.6808C1.26891 16.5206 3.83992 13.9496 7.00014 13.9496ZM3.88573 27.4226C3.88573 28.1441 3.29879 28.7311 2.57735 28.7311C1.85591 28.7311 1.26891 28.1441 1.26891 27.4226V26.6231H3.88573V27.4226ZM29.9068 28.7311C29.1854 28.7311 28.5984 28.1441 28.5984 27.4226V26.6231H31.2152V27.4226C31.2152 28.1441 30.6283 28.7311 29.9068 28.7311Z" fill="white"/>
</svg>
