<svg width="33" height="40" viewBox="0 0 33 40" fill="none" xmlns="http://www.w3.org/2000/svg">
<path d="M19.5312 35.3125C19.1 35.3125 18.75 35.6625 18.75 36.0938C18.75 36.525 19.1 36.875 19.5312 36.875C19.9625 36.875 20.3125 36.525 20.3125 36.0938C20.3125 35.6625 19.9625 35.3125 19.5312 35.3125Z" fill="white"/>
<path d="M30.4688 3.59375H28.125V2.34375C28.125 1.05141 27.0736 0 25.7812 0H7.03125C5.73891 0 4.6875 1.05141 4.6875 2.34375V3.59375H2.34375C1.05141 3.59375 0 4.64516 0 5.9375C0 11.0201 2.37828 14.7552 6.23656 15.7952C7.55922 18.7065 9.65047 21.1814 12.3048 22.9698C12.9163 23.3817 13.2812 24.087 13.2812 24.8563V29.1609C12.7457 29.2982 12.2544 29.5766 11.853 29.978C11.2627 30.5685 10.9375 31.3531 10.9375 32.1875H10.1562C8.86391 32.1875 7.8125 33.2389 7.8125 34.5312V39.2188C7.8125 39.6502 8.16234 40 8.59375 40H24.2188C24.6502 40 25 39.6502 25 39.2188V34.5312C25 33.2389 23.9486 32.1875 22.6562 32.1875H21.875C21.875 30.7341 20.8776 29.5091 19.5312 29.1614V24.8602C19.5312 24.0884 19.8965 23.3818 20.5084 22.9698C23.163 21.1813 25.2543 18.7063 26.5769 15.7949C30.4346 14.7546 32.8125 11.0197 32.8125 5.9375C32.8125 4.64516 31.7611 3.59375 30.4688 3.59375ZM1.5625 5.9375C1.5625 5.50672 1.91297 5.15625 2.34375 5.15625H4.6875V8.64844C4.6875 10.4293 4.95727 12.1732 5.48984 13.8527C3.00367 12.6212 1.5625 9.77703 1.5625 5.9375ZM22.6562 33.75C23.087 33.75 23.4375 34.1005 23.4375 34.5312V38.4375H9.375V34.5312C9.375 34.1005 9.72547 33.75 10.1562 33.75H22.6562ZM26.5625 8.64844C26.5625 10.7825 26.1377 12.8591 25.2995 14.8203C24.1073 17.6107 22.1488 19.9806 19.6356 21.6738C18.5919 22.3764 17.9688 23.5676 17.9688 24.8602V29.8438C17.9688 30.2752 18.3186 30.625 18.75 30.625C19.6116 30.625 20.3125 31.3259 20.3125 32.1875H12.5C12.5 31.7705 12.6627 31.3782 12.9579 31.0829C13.2387 30.8021 13.6072 30.6413 14.0013 30.6262C14.0215 30.6277 14.0419 30.6285 14.0624 30.6285C14.4938 30.6285 14.8437 30.2752 14.8437 29.8438V24.8563C14.8437 23.5664 14.2209 22.3768 13.1779 21.674C10.6645 19.9807 8.70594 17.6108 7.51359 14.8202C6.67516 12.8596 6.25 10.7831 6.25 8.64844V2.34375C6.25 1.91297 6.60047 1.5625 7.03125 1.5625H25.7812C26.212 1.5625 26.5625 1.91297 26.5625 2.34375V8.64844ZM27.323 13.8525C27.8553 12.1727 28.125 10.4288 28.125 8.64844V5.15625H30.4688C30.8995 5.15625 31.25 5.50672 31.25 5.9375C31.25 9.7768 29.809 12.6209 27.323 13.8525Z" fill="white"/>
<path d="M22.589 9.23125C22.4972 8.94836 22.2527 8.74219 21.9583 8.69953L18.5868 8.21016L17.0787 5.1543C16.9471 4.88758 16.6755 4.71875 16.3781 4.71875C16.0807 4.71875 15.8091 4.88758 15.6775 5.1543L14.1694 8.21016L10.7979 8.69953C10.5036 8.74227 10.2591 8.94844 10.1672 9.23125C10.0753 9.51414 10.1519 9.82461 10.3649 10.0322L12.805 12.4103L12.2291 15.7687C12.1789 16.0618 12.2993 16.358 12.54 16.5328C12.7806 16.7076 13.0996 16.7306 13.3627 16.5923L16.3782 15.0069L19.3943 16.5923C19.6592 16.7315 19.978 16.7065 20.2171 16.5327C20.4576 16.3579 20.5781 16.0616 20.5278 15.7685L19.9512 12.4102L22.3913 10.0322C22.6043 9.82461 22.6809 9.51414 22.589 9.23125ZM18.5664 11.578C18.3823 11.7575 18.2982 12.0162 18.3418 12.2697L18.72 14.4726L16.7416 13.4327C16.5139 13.313 16.242 13.313 16.0146 13.4327L14.0368 14.4726L14.4147 12.2695C14.4581 12.016 14.374 11.7574 14.1899 11.578L12.5896 10.0183L14.8006 9.69734C15.0551 9.66039 15.2751 9.50055 15.3889 9.26992L16.3782 7.26531L17.3674 9.26992C17.4812 9.50055 17.7012 9.66039 17.9557 9.69734L20.1668 10.0183L18.5664 11.578Z" fill="white"/>
<path d="M16.4062 35.3125H13.2812C12.8498 35.3125 12.5 35.6623 12.5 36.0938C12.5 36.5252 12.8498 36.875 13.2812 36.875H16.4062C16.8377 36.875 17.1875 36.5252 17.1875 36.0938C17.1875 35.6623 16.8377 35.3125 16.4062 35.3125Z" fill="white"/>
<path d="M28.4385 37.6562H28.874C28.6521 37.6122 28.5029 37.6079 28.4385 37.6562Z" fill="white"/>
</svg>
