<svg width="28" height="20" viewBox="0 0 28 20" fill="none" xmlns="http://www.w3.org/2000/svg">
<path d="M25.4685 12.042H24.8568V11.3697C24.8568 10.8765 24.7019 10.4193 24.439 10.0432C24.9215 8.88725 25.1116 7.79709 25.0519 6.54796C24.9689 4.81369 24.3101 3.18249 23.1968 1.95485C22.0537 0.694247 20.5565 0 18.9812 0C16.5771 0 14.6089 1.48941 13.7945 2.21317C13.0035 1.48252 11.0903 0 8.59048 0C7.01528 0 5.51811 0.694247 4.37491 1.95485C3.26154 3.18254 2.60273 4.81374 2.51974 6.54807C2.46013 7.79725 2.65017 8.88746 3.13246 10.0435C2.86972 10.4195 2.71495 10.8767 2.71495 11.3697V12.042H2.10326C0.943524 12.042 0 12.9886 0 14.152C0 15.3155 0.943524 16.2621 2.10326 16.2621H2.71495V16.9344C2.71495 18.2116 3.75051 19.2506 5.02344 19.2506C5.58338 19.2506 6.09728 19.0494 6.4974 18.7154C6.87629 19.4761 7.65977 19.9999 8.56339 19.9999C9.83632 19.9999 10.8719 18.9609 10.8719 17.6838V17.5568C12.3623 18.6196 13.4817 19.3746 13.4947 19.3834C13.5856 19.4446 13.6906 19.4753 13.7956 19.4753C13.9005 19.4753 14.0055 19.4446 14.0964 19.3834C14.1093 19.3747 15.2191 18.6264 16.6997 17.5703V17.6839C16.6997 18.961 17.7352 20 19.0082 20C19.9117 20 20.6953 19.4761 21.0742 18.7155C21.4743 19.0494 21.9882 19.2506 22.5481 19.2506C23.8211 19.2506 24.8566 18.2116 24.8566 16.9345V16.2621H25.4683C26.628 16.2621 27.5716 15.3156 27.5716 14.1521C27.5717 12.9886 26.6282 12.042 25.4685 12.042ZM3.59558 6.5995C3.74125 3.55444 5.98193 1.07707 8.59048 1.07707C11.3445 1.07707 13.3638 3.30031 13.3832 3.32212C13.4834 3.435 13.6267 3.50037 13.7776 3.50279C13.9293 3.50586 14.0738 3.44388 14.1775 3.33429C14.1989 3.31173 16.345 1.07707 18.9812 1.07707C21.5897 1.07707 23.8304 3.55444 23.9761 6.5995C24.022 7.56015 23.8968 8.41358 23.5749 9.29609C23.2654 9.14121 22.917 9.05359 22.5483 9.05359C21.9883 9.05359 21.4744 9.25478 21.0743 9.58871C20.6954 8.82807 19.912 8.3042 19.0083 8.3042C17.7354 8.3042 16.6998 9.34321 16.6998 10.6203V12.042H10.8719V10.6203C10.8719 9.34321 9.83637 8.3042 8.56344 8.3042C7.65988 8.3042 6.87634 8.82807 6.49745 9.58871C6.09728 9.25478 5.58338 9.05359 5.02349 9.05359C4.65472 9.05359 4.30614 9.14126 3.99661 9.29619C3.67485 8.41363 3.5497 7.56015 3.59558 6.5995ZM10.8719 13.119H16.6998V15.185H10.8719V13.119ZM2.10326 15.1851C1.53739 15.1851 1.07702 14.7216 1.07702 14.152C1.07702 13.5825 1.53739 13.119 2.10326 13.119H2.71495V15.185H2.10326V15.1851ZM5.02344 18.1735C4.34443 18.1735 3.79197 17.6177 3.79197 16.9344V11.3697C3.79197 10.6864 4.34443 10.1306 5.02344 10.1306C5.70245 10.1306 6.2549 10.6864 6.2549 11.3697V16.9344C6.2549 17.6176 5.7025 18.1735 5.02344 18.1735ZM9.79491 17.6838C9.79491 18.367 9.24245 18.9229 8.56344 18.9229C7.88444 18.9229 7.33198 18.367 7.33198 17.6838V10.6204C7.33198 9.93713 7.88444 9.38128 8.56344 9.38128C9.24245 9.38128 9.79491 9.93713 9.79491 10.6204V17.6838ZM13.7957 18.2855C13.2891 17.9394 12.1951 17.1853 10.9145 16.262H16.6757C15.3962 17.1853 14.3022 17.9395 13.7957 18.2855ZM20.2398 17.6838C20.2398 18.367 19.6873 18.9229 19.0083 18.9229C18.3293 18.9229 17.7769 18.367 17.7769 17.6838V10.6204C17.7769 9.93713 18.3293 9.38128 19.0083 9.38128C19.6873 9.38128 20.2398 9.93713 20.2398 10.6204V17.6838ZM23.7798 16.9344C23.7798 17.6177 23.2273 18.1735 22.5483 18.1735C21.8693 18.1735 21.3168 17.6177 21.3168 16.9344V11.3697C21.3168 10.6864 21.8693 10.1306 22.5483 10.1306C23.2273 10.1306 23.7798 10.6864 23.7798 11.3697V16.9344ZM25.4685 15.1851H24.8568V13.119H25.4685C26.0343 13.119 26.4947 13.5824 26.4947 14.152C26.4947 14.7216 26.0343 15.1851 25.4685 15.1851Z" fill="#ED7D3A"/>
</svg>
