<svg width="41" height="40" viewBox="0 0 41 40" fill="none" xmlns="http://www.w3.org/2000/svg">
<path d="M37.8656 35.4406H36.6578C36.7231 35.2566 36.759 35.0587 36.759 34.8525V24.2523C36.759 23.3942 36.1431 22.6776 35.3302 22.5205V20.3581C35.854 20.7725 36.5021 20.9994 37.1726 20.9993C38.0267 20.9992 38.84 20.6318 39.4039 19.9912C39.9284 19.3955 40.1896 18.6311 40.1392 17.8389C40.0889 17.0466 39.733 16.3215 39.1371 15.797L35.3302 12.4453V3.80965H35.7202C36.2606 3.80965 36.7003 3.37002 36.7003 2.82954V0.980112C36.7003 0.439717 36.2606 0 35.7202 0H27.3629C26.8225 0 26.3828 0.439639 26.3828 0.980112V2.82962C26.3828 3.37009 26.8225 3.80973 27.3629 3.80973H27.7529V5.77411L22.0365 0.741356C20.9169 -0.244401 19.2285 -0.244401 18.109 0.741278L9.58795 8.24321C9.34418 8.45781 9.32058 8.82947 9.53518 9.07317C9.74986 9.31686 10.1214 9.34054 10.3651 9.12594L18.8862 1.62393C19.5626 1.02825 20.5828 1.02833 21.2592 1.62393L38.36 16.6798C38.72 16.9967 38.9351 17.4349 38.9655 17.9135C38.9959 18.3921 38.8382 18.8541 38.5212 19.214C38.1804 19.6011 37.6888 19.8231 37.1725 19.8231C36.7361 19.8232 36.315 19.664 35.9869 19.3751L20.9794 6.16231C20.4625 5.70723 19.6829 5.70723 19.166 6.16231L4.15852 19.3751C3.79847 19.692 3.33633 19.8501 2.85788 19.8193C2.37927 19.7889 1.94112 19.5739 1.62419 19.2139C1.30726 18.8539 1.14942 18.3921 1.17993 17.9135C1.21035 17.4348 1.42542 16.9966 1.7854 16.6797L8.43769 10.8229C8.68146 10.6083 8.70507 10.2367 8.49046 9.99298C8.27578 9.74929 7.90427 9.72561 7.6605 9.94021L1.00821 15.797C0.412381 16.3216 0.0565609 17.0467 0.00614394 17.8389C-0.044273 18.6311 0.216907 19.3955 0.741463 19.9912C1.26594 20.587 1.99107 20.9429 2.78323 20.9933C2.84776 20.9974 2.91198 20.9994 2.97604 20.9994C3.64667 20.9994 4.28868 20.7755 4.81512 20.3582V22.532C4.02946 22.71 3.44093 23.4135 3.44093 24.2522V30.63C3.44093 30.9547 3.70422 31.218 4.02899 31.218C4.35376 31.218 4.61706 30.9547 4.61706 30.63V24.2522C4.61706 23.928 4.88083 23.6641 5.20513 23.6641H23.6045C23.9293 23.6641 24.1926 23.4008 24.1926 23.0761C24.1926 22.7513 23.9293 22.488 23.6045 22.488H11.3888L18.5969 15.5926C19.0189 15.877 19.5268 16.0433 20.0727 16.0433C20.5988 16.0433 21.0891 15.8884 21.5016 15.6228L28.6782 22.4881H26.1674C25.8426 22.4881 25.5793 22.7514 25.5793 23.0761C25.5793 23.4009 25.8426 23.6642 26.1674 23.6642H34.9948C35.319 23.6642 35.5829 23.928 35.5829 24.2523V34.8525C35.5829 35.1768 35.319 35.4406 34.9948 35.4406H5.20513C4.88083 35.4406 4.61706 35.1768 4.61706 34.8525V33.1929C4.61706 32.8682 4.35376 32.6049 4.02899 32.6049C3.70422 32.6049 3.44093 32.8682 3.44093 33.1929V34.8525C3.44093 35.0587 3.47684 35.2566 3.54207 35.4406H2.27985C1.02279 35.4406 0.000184857 36.4633 0.000184857 37.7203C0.000184857 38.9774 1.02287 40 2.27985 40H37.8656C39.1226 40 40.1452 38.9773 40.1452 37.7203C40.1452 36.4633 39.1226 35.4406 37.8656 35.4406ZM27.559 1.17613H35.5241V2.6336H27.559V1.17613ZM28.929 3.80965H34.1542V11.4098L28.929 6.8095V3.80965ZM18.6013 13.3958C18.6013 12.5845 19.2613 11.9244 20.0727 11.9244C20.884 11.9244 21.5441 12.5845 21.5441 13.3958C21.5441 14.2071 20.884 14.8672 20.0727 14.8672C19.2614 14.8671 18.6013 14.2071 18.6013 13.3958ZM30.3479 22.4576L22.326 14.7838C22.5758 14.38 22.7203 13.9045 22.7203 13.3958C22.7203 11.936 21.5326 10.7483 20.0728 10.7483C18.6129 10.7483 17.4253 11.936 17.4253 13.3958C17.4253 13.8847 17.559 14.3426 17.791 14.7361L9.76288 22.4159C9.73936 22.4384 9.71874 22.4628 9.69976 22.488H5.99125V19.3286L19.9432 7.0452C20.017 6.9802 20.1284 6.9802 20.2022 7.0452L34.1542 19.3286V22.488H30.3766C30.3673 22.4778 30.358 22.4674 30.3479 22.4576ZM37.8656 38.8239H2.27985C1.67131 38.8239 1.17624 38.3288 1.17624 37.7203C1.17624 37.1117 1.67131 36.6167 2.27985 36.6167H37.8656C38.4741 36.6167 38.9692 37.1117 38.9692 37.7203C38.9691 38.3288 38.4741 38.8239 37.8656 38.8239Z" fill="white"/>
<path d="M23.1584 25.519C22.8336 25.519 22.5703 25.7823 22.5703 26.1071V32.9919C22.5703 33.2783 22.7767 33.5231 23.059 33.5715C23.101 33.5787 23.1438 33.5861 23.8934 33.5861C24.2587 33.5861 24.792 33.5843 25.5745 33.58C25.8992 33.5781 26.161 33.3134 26.1592 32.9886C26.1574 32.6649 25.8945 32.4038 25.5713 32.4038C25.5702 32.4038 25.569 32.4038 25.5679 32.4038C25.0284 32.4069 24.2607 32.4096 23.7464 32.4096V26.1071C23.7464 25.7823 23.4831 25.519 23.1584 25.519Z" fill="white"/>
<path d="M26.7969 32.7873C26.7969 32.8314 26.8021 32.8743 26.8114 32.9156C26.8164 33.0652 26.8777 33.2075 26.9842 33.3132C27.0944 33.4226 27.2433 33.4839 27.3985 33.4839H27.4007C27.4579 33.4837 28.8066 33.4785 29.3444 33.4691C30.2967 33.4525 31.1445 33.0212 31.7318 32.2548C32.2704 31.5517 32.5671 30.5921 32.5671 29.5525C32.5671 27.201 31.2456 25.6211 29.2788 25.6211H27.3849C27.2288 25.6211 27.0791 25.6832 26.9687 25.7937C26.8584 25.9043 26.7966 26.0541 26.7969 26.2103V26.2159V26.2161V32.7873ZM29.2788 26.7972C30.8361 26.7972 31.391 28.2205 31.391 29.5525C31.391 30.8551 30.7441 32.2684 29.3238 32.2931C29.019 32.2985 28.4312 32.3026 27.9845 32.305C27.9819 31.5264 27.9779 30.1793 27.9779 29.5451C27.9779 29.0138 27.9755 27.6042 27.9741 26.7971H29.2788V26.7972Z" fill="white"/>
<path d="M10.5674 32.4096C9.80669 32.4096 9.072 32.1 8.60194 31.5814C8.38388 31.3408 8.01199 31.3224 7.77127 31.5405C7.53064 31.7587 7.51237 32.1305 7.73042 32.3712C8.41972 33.1318 9.48028 33.5857 10.5673 33.5857C11.8656 33.5857 12.9964 32.7353 13.1979 31.6076C13.4298 30.3084 12.4053 29.4372 11.3692 29.055C10.4781 28.7263 9.65183 28.3672 9.44828 28.2778C9.21855 28.1108 9.10689 27.843 9.14845 27.5533C9.20036 27.192 9.47682 26.9023 9.88824 26.7784C11.0086 26.4408 12.0183 27.2522 12.0367 27.2672C12.2854 27.4743 12.6548 27.4418 12.8632 27.1938C13.0722 26.9452 13.04 26.5742 12.7915 26.3652C12.731 26.3145 11.2914 25.1272 9.54904 25.6522C8.70073 25.9078 8.10114 26.5721 7.98431 27.3861C7.87564 28.1433 8.20346 28.8714 8.83999 29.2864C8.86602 29.3034 8.89323 29.3182 8.92161 29.3308C8.96113 29.3484 9.90204 29.7672 10.9623 30.1584C11.7373 30.4443 12.1301 30.8971 12.0402 31.4009C11.9527 31.8899 11.4069 32.4096 10.5674 32.4096Z" fill="white"/>
<path d="M21.9329 29.5524C21.9329 27.3284 20.1236 25.519 17.8996 25.519C15.6756 25.519 13.8662 27.3284 13.8662 29.5524C13.8662 31.7764 15.6756 33.5858 17.8996 33.5858C20.1236 33.5858 21.9329 31.7764 21.9329 29.5524ZM15.0424 29.5524C15.0424 27.9769 16.3242 26.6952 17.8996 26.6952C19.4751 26.6952 20.7569 27.9769 20.7569 29.5524C20.7569 31.1279 19.4751 32.4096 17.8996 32.4096C16.3242 32.4096 15.0424 31.1279 15.0424 29.5524Z" fill="white"/>
</svg>
