<svg width="32" height="32" viewBox="0 0 32 32" fill="none" xmlns="http://www.w3.org/2000/svg">
<path d="M31.6069 12.1785C31.5435 12.1785 31.4872 12.1645 31.431 12.1293L16.4793 3.47493L1.5277 12.1293C1.42216 12.1926 1.28144 12.1926 1.1759 12.1293C1.07036 12.066 1 11.9534 1 11.8267V10.1099C1 9.98329 1.07036 9.87071 1.1759 9.80739L16.3034 1.04749C16.416 0.984169 16.5497 0.984169 16.6552 1.04749L31.7828 9.80739C31.8883 9.87071 31.9587 9.98329 31.9587 10.1099V11.8267C31.9587 11.9534 31.8883 12.066 31.7828 12.1293C31.7265 12.1645 31.6702 12.1785 31.6069 12.1785ZM16.4793 2.71504C16.5427 2.71504 16.5989 2.72911 16.6552 2.76429L31.2551 11.2146V10.307L16.4793 1.75814L1.70361 10.307V11.2146L16.3034 2.76429C16.3597 2.72911 16.416 2.71504 16.4793 2.71504Z" fill="white" stroke="#646262" stroke-width="0.1"/>
<path d="M29.8261 31.0001H3.12426C2.92725 31.0001 2.77246 30.8453 2.77246 30.6483V10.7996C2.77246 10.6025 2.92725 10.4478 3.12426 10.4478C3.32127 10.4478 3.47607 10.6025 3.47607 10.7996V30.2965H29.4743V10.7996C29.4743 10.6025 29.6291 10.4478 29.8261 10.4478C30.0231 10.4478 30.1779 10.6025 30.1779 10.7996V30.6553C30.1779 30.8453 30.0231 31.0001 29.8261 31.0001Z" fill="white" stroke="#646262" stroke-width="0.1"/>
<path d="M26.6106 31.0001C26.4136 31.0001 26.2588 30.8453 26.2588 30.6483V13.5366C26.2588 13.3325 26.0969 13.1707 25.8929 13.1707H7.07143C6.86739 13.1707 6.70556 13.3325 6.70556 13.5366V30.6483C6.70556 30.8453 6.55077 31.0001 6.35376 31.0001C6.15675 31.0001 6.00195 30.8453 6.00195 30.6483V13.5436C6.00195 12.9526 6.48041 12.4741 7.07143 12.4741H25.8929C26.4839 12.4741 26.9624 12.9526 26.9624 13.5436V30.6553C26.9624 30.8453 26.8005 31.0001 26.6106 31.0001Z" fill="white" stroke="#646262" stroke-width="0.1"/>
<path d="M20.018 10.3844H12.9397C12.7427 10.3844 12.5879 10.2296 12.5879 10.0326V7.66845C12.5879 7.47144 12.7427 7.31665 12.9397 7.31665H20.018C20.215 7.31665 20.3698 7.47144 20.3698 7.66845V10.0326C20.3698 10.2296 20.215 10.3844 20.018 10.3844ZM13.2915 9.68077H19.6662V8.02026H13.2915V9.68077Z" fill="white" stroke="#646262" stroke-width="0.1"/>
<path d="M16.4788 10.3844C16.2817 10.3844 16.127 10.2296 16.127 10.0326V7.66845C16.127 7.47144 16.2817 7.31665 16.4788 7.31665C16.6758 7.31665 16.8306 7.47144 16.8306 7.66845V10.0326C16.8306 10.2296 16.6758 10.3844 16.4788 10.3844Z" fill="white" stroke="#646262" stroke-width="0.1"/>
<path d="M26.6108 15.2886H6.34692C6.14991 15.2886 5.99512 15.1338 5.99512 14.9368C5.99512 14.7398 6.14991 14.585 6.34692 14.585H26.6108C26.8078 14.585 26.9626 14.7398 26.9626 14.9368C26.9626 15.1338 26.8007 15.2886 26.6108 15.2886Z" fill="white" stroke="#646262" stroke-width="0.1"/>
<path d="M26.6108 17.3992H6.34692C6.14991 17.3992 5.99512 17.2444 5.99512 17.0474C5.99512 16.8503 6.14991 16.6956 6.34692 16.6956H26.6108C26.8078 16.6956 26.9626 16.8503 26.9626 17.0474C26.9626 17.2444 26.8007 17.3992 26.6108 17.3992Z" fill="white" stroke="#646262" stroke-width="0.1"/>
<path d="M26.6108 19.51H6.34692C6.14991 19.51 5.99512 19.3552 5.99512 19.1582C5.99512 18.9612 6.14991 18.8064 6.34692 18.8064H26.6108C26.8078 18.8064 26.9626 18.9612 26.9626 19.1582C26.9626 19.3552 26.8007 19.51 26.6108 19.51Z" fill="white" stroke="#646262" stroke-width="0.1"/>
<path d="M29.827 29.2269H26.6116C26.4146 29.2269 26.2598 29.0721 26.2598 28.8751C26.2598 28.6781 26.4146 28.5233 26.6116 28.5233H29.8341C30.0311 28.5233 30.1859 28.6781 30.1859 28.8751C30.1859 29.0721 30.0241 29.2269 29.827 29.2269Z" fill="white" stroke="#646262" stroke-width="0.1"/>
<path d="M6.34678 29.2269H3.12426C2.92725 29.2269 2.77246 29.0721 2.77246 28.8751C2.77246 28.6781 2.92725 28.5233 3.12426 28.5233H6.34678C6.54379 28.5233 6.69858 28.6781 6.69858 28.8751C6.69858 29.0721 6.54379 29.2269 6.34678 29.2269Z" fill="white" stroke="#646262" stroke-width="0.1"/>
<path d="M21.6787 23.8322C22.0293 23.8322 22.3135 23.548 22.3135 23.1974C22.3135 22.8468 22.0293 22.5626 21.6787 22.5626C21.3281 22.5626 21.0439 22.8468 21.0439 23.1974C21.0439 23.548 21.3281 23.8322 21.6787 23.8322Z" fill="white"/>
</svg>
