<svg width="31" height="32" viewBox="0 0 31 32" fill="none" xmlns="http://www.w3.org/2000/svg">
<path d="M1.50024 31H29.1733C29.4495 31 29.6733 30.7761 29.6733 30.5V3.77441C29.6733 3.49829 29.4495 3.27441 29.1733 3.27441H22.4233V1.5C22.4233 1.22388 22.1995 1 21.9233 1C21.6472 1 21.4233 1.22388 21.4233 1.5V3.27441H9.25V1.5C9.25 1.22388 9.02612 1 8.75 1C8.47388 1 8.25 1.22388 8.25 1.5V3.27441H1.50024C1.22412 3.27441 1.00024 3.49829 1.00024 3.77441V10.4128L1 10.4141L1.00024 10.4153V30.5C1.00024 30.7761 1.22412 31 1.50024 31ZM2.00024 30V10.9141H28.6733V30H2.00024ZM8.25 4.27441V6.23853C8.25 6.51465 8.47388 6.73853 8.75 6.73853C9.02612 6.73853 9.25 6.51465 9.25 6.23853V4.27441H21.4233V6.23853C21.4233 6.51465 21.6472 6.73853 21.9233 6.73853C22.1995 6.73853 22.4233 6.51465 22.4233 6.23853V4.27441H28.6733V9.91406H2.00024V4.27441H8.25Z" fill="white" stroke="white"/>
<path d="M20.759 16.7885L14.2415 23.4858L10.9512 20.1955C10.7559 20.0002 10.4395 20.0002 10.2441 20.1955C10.0488 20.3908 10.0488 20.7072 10.2441 20.9025L13.8928 24.5512C13.9866 24.645 14.1138 24.6977 14.2463 24.6977C14.2476 24.6977 14.2485 24.6977 14.2498 24.6977C14.3835 24.6967 14.5115 24.6423 14.6047 24.5463L21.4758 17.4858C21.6685 17.288 21.6641 16.9714 21.4661 16.7788C21.2686 16.5866 20.9521 16.5903 20.759 16.7885Z" fill="white" stroke="white"/>
<path d="M20.6787 23.8322C21.0293 23.8322 21.3135 23.548 21.3135 23.1974C21.3135 22.8468 21.0293 22.5626 20.6787 22.5626C20.3281 22.5626 20.0439 22.8468 20.0439 23.1974C20.0439 23.548 20.3281 23.8322 20.6787 23.8322Z" fill="white"/>
</svg>
