<svg xmlns="http://www.w3.org/2000/svg" version="1.1" xmlns:xlink="http://www.w3.org/1999/xlink" width="512" height="512" x="0" y="0" viewBox="0 0 682.667 682.667" style="enable-background:new 0 0 512 512" xml:space="preserve" class=""><g><defs><clipPath id="b" clipPathUnits="userSpaceOnUse"><path d="M0 512h512V0H0Z" fill="#646262" opacity="1" data-original="#000000" class=""></path></clipPath></defs><mask id="a"><rect width="100%" height="100%" fill="#ffffff" opacity="1" data-original="#ffffff"></rect></mask><g mask="url(#a)"><g clip-path="url(#b)" transform="matrix(1.33333 0 0 -1.33333 0 682.667)"><path d="m0 0 97.625 96.193a59.998 59.998 0 0 1 17.284 48.527L97.8 312.682l-168.4 17.116a59.998 59.998 0 0 1-48.529-17.302l-171.216-170.65c-23.391-23.43-23.383-61.379.019-84.799l131.347-131.456c23.421-23.44 61.41-24.011 84.851-.591" style="stroke-width:40;stroke-linecap:round;stroke-linejoin:round;stroke-miterlimit:10;stroke-dasharray:none;stroke-opacity:1" transform="translate(327.883 112)" fill="none" stroke="#646262" stroke-width="40" stroke-linecap="round" stroke-linejoin="round" stroke-miterlimit="10" stroke-dasharray="none" stroke-opacity="" data-original="#000000" opacity="1" class=""></path><path d="M0 0s136.262 7.168 136.203 108.326v.796c0 15.397-12.481 27.878-27.878 27.878 0 0-72.122-6-91.082-57" style="stroke-width:40;stroke-linecap:round;stroke-linejoin:round;stroke-miterlimit:10;stroke-dasharray:none;stroke-opacity:1" transform="translate(355.797 355)" fill="none" stroke="#646262" stroke-width="40" stroke-linecap="round" stroke-linejoin="round" stroke-miterlimit="10" stroke-dasharray="none" stroke-opacity="" data-original="#000000" opacity="1" class=""></path><path d="m0 0-18.129-17.492" style="stroke-width:40;stroke-linecap:round;stroke-linejoin:round;stroke-miterlimit:10;stroke-dasharray:none;stroke-opacity:1" transform="translate(177.129 172.492)" fill="none" stroke="#646262" stroke-width="40" stroke-linecap="round" stroke-linejoin="round" stroke-miterlimit="10" stroke-dasharray="none" stroke-opacity="" data-original="#000000" opacity="1" class=""></path><path d="m0 0-19.504-20.142" style="stroke-width:40;stroke-linecap:round;stroke-linejoin:round;stroke-miterlimit:10;stroke-dasharray:none;stroke-opacity:1" transform="translate(309 305)" fill="none" stroke="#646262" stroke-width="40" stroke-linecap="round" stroke-linejoin="round" stroke-miterlimit="10" stroke-dasharray="none" stroke-opacity="" data-original="#000000" opacity="1" class=""></path><path d="M0 0c11.69 11.69 10.792 30.385-.881 42.058l-12.255 12.254c-14.201 14.202-36.66 14.611-50.883.388l-3.158-3.158c-14.222-14.223-14.728-37.597-.527-51.798l12.959-12.96c14.202-14.201 14.595-36.834.372-51.057l-1.472-1.471c-14.222-14.223-36.438-13.413-50.64.788l-21.061 21.061c-11.673 11.673-12.319 29.951-.629 41.642" style="stroke-width:40;stroke-linecap:round;stroke-linejoin:round;stroke-miterlimit:10;stroke-dasharray:none;stroke-opacity:1" transform="translate(295.769 233.12)" fill="none" stroke="#646262" stroke-width="40" stroke-linecap="round" stroke-linejoin="round" stroke-miterlimit="10" stroke-dasharray="none" stroke-opacity="" data-original="#000000" opacity="1" class=""></path></g></g></g></svg>