<svg width="14" height="20" viewBox="0 0 14 20" fill="none" xmlns="http://www.w3.org/2000/svg">
<path d="M6.66654 0C3.00773 0 0 2.85311 0 6.92307C0 8.3754 0.34215 9.38575 0.977637 10.5049L6.21792 19.7356V19.7355C6.30824 19.8988 6.48012 20 6.66667 20C6.85321 20 7.02509 19.8988 7.11541 19.7355L12.3557 10.5047C12.9912 9.38575 13.3333 8.37541 13.3333 6.92307C13.3333 2.85316 10.3256 4.19197e-06 6.6668 4.19197e-06L6.66654 0ZM6.66654 1.02555C9.80489 1.02555 12.3075 3.34588 12.3075 6.92298C12.3075 8.22669 12.0546 8.96373 11.4661 9.99985L6.66677 18.4454L1.86741 9.99985C1.27896 8.96373 1.02608 8.2265 1.02608 6.92298C1.02608 3.34583 3.5286 1.02555 6.667 1.02555H6.66654ZM6.66654 3.07687C4.69002 3.07687 3.07696 4.69015 3.07696 6.66652C3.07696 8.64289 4.6902 10.2562 6.66654 10.2562C8.64306 10.2562 10.2561 8.64289 10.2561 6.66652C10.2561 4.68997 8.64287 3.07687 6.66654 3.07687ZM6.66654 4.10242C8.08876 4.10242 9.23059 5.24441 9.23059 6.66652C9.23059 8.08864 8.08863 9.23062 6.66654 9.23062C5.24445 9.23062 4.10249 8.08864 4.10249 6.66652C4.10249 5.24441 5.24431 4.10242 6.66654 4.10242Z" fill="#646262"/>
</svg>
