<svg width="25" height="25" viewBox="0 0 25 25" fill="none" xmlns="http://www.w3.org/2000/svg">
<path d="M3.33224 25H21.6643C22.3546 25 22.9142 24.4404 22.9142 23.7501V9.69019L23.0621 9.78809C23.3339 9.97577 23.6709 10.0435 23.9941 9.97556C24.3267 9.90676 24.6168 9.70525 24.7974 9.41768L24.7999 9.41352C25.166 8.82373 25.0057 8.05055 24.4354 7.65489L13.1841 0.21001C12.7708 -0.0700034 12.2286 -0.0700034 11.8154 0.21001L0.557814 7.65868C-0.0113758 8.05567 -0.169626 8.82905 0.19785 9.41773C0.376491 9.70509 0.664925 9.9068 0.99612 9.97602C1.07937 9.99278 1.16411 10.0012 1.24902 10.001C1.49184 10.0014 1.72913 9.9288 1.93023 9.79271L2.08229 9.69064V23.7501C2.08229 24.4404 2.6419 25 3.33224 25ZM22.0809 23.7501C22.0809 23.9802 21.8944 24.1667 21.6643 24.1667H3.33224C3.10212 24.1667 2.9156 23.9802 2.9156 23.7501V9.13982L12.4983 2.8069L22.0809 9.13982V23.7501ZM1.46608 9.099C1.37887 9.1593 1.27064 9.18101 1.16692 9.15901C1.05746 9.13614 0.962233 9.06924 0.903621 8.97401C0.771705 8.76825 0.823051 8.49534 1.02068 8.35154L12.2787 0.902491C12.3434 0.858491 12.42 0.835005 12.4983 0.835005C12.5781 0.835335 12.656 0.859564 12.722 0.904596L23.9725 8.34951C24.1717 8.49191 24.2251 8.76508 24.0941 8.97199C24.0341 9.06837 23.9374 9.1361 23.8263 9.15946C23.7218 9.18023 23.6134 9.15736 23.5263 9.09615L12.7282 1.95989C12.589 1.86896 12.4092 1.86896 12.27 1.95989L1.46608 9.099Z" fill="#ED7D3A"/>
<path d="M9.0174 7.86239C8.53352 7.38083 7.75139 7.38083 7.26752 7.86239L4.94437 10.1855C4.46256 10.6693 4.46256 11.4516 4.94437 11.9354L8.71452 15.7089L6.39549 18.0284C6.34522 18.0782 6.30861 18.1402 6.28925 18.2084L5.31807 21.6086C5.24902 21.8498 5.29727 22.1095 5.44834 22.3099C5.59941 22.5102 5.83584 22.6281 6.08675 22.6281C6.161 22.6279 6.23489 22.6175 6.30634 22.5972L9.70654 21.6252C9.77464 21.6059 9.83664 21.5693 9.88654 21.519L12.2064 19.2008L15.9774 22.9722C16.4614 23.4536 17.2433 23.4536 17.7272 22.9722L20.0504 20.6491C20.5322 20.1653 20.5322 19.383 20.0504 18.8992L16.2815 15.1257L19.4717 11.9355C19.7814 11.6263 19.9554 11.2066 19.9554 10.7689C19.9554 10.3313 19.7814 9.9116 19.4717 9.60237L18.3101 8.44079C18.0014 8.13035 17.5813 7.95646 17.1435 7.9579C16.7058 7.95642 16.2857 8.13015 15.977 8.44037L12.7897 11.6339L9.0174 7.86239ZM7.56252 20.3524C7.31742 20.1096 7.0242 19.9209 6.70176 19.7983L6.96093 18.8904L8.40582 19.5095L9.02495 20.9544L8.1171 21.2136C7.99434 20.8909 7.80542 20.5976 7.56252 20.3524ZM9.21697 19.2874L15.4019 13.1025L16.2648 13.9653L9.73444 20.4953L9.21697 19.2874ZM14.5395 11.0613L15.4024 10.1985L17.7173 12.5133L16.854 13.3758L14.5395 11.0613ZM14.8133 12.5133L8.62784 18.6983L7.41958 18.1808L13.95 11.6505L14.8133 12.5133ZM5.53349 11.3467C5.37553 11.1886 5.37553 10.9324 5.53349 10.7743L7.85665 8.45111C8.01477 8.29314 8.27097 8.29314 8.4291 8.45111L9.29613 9.31814L8.4291 10.1852C8.32079 10.2898 8.27737 10.4447 8.31547 10.5904C8.3536 10.736 8.46736 10.8498 8.61302 10.8879C8.75868 10.9261 8.91359 10.8826 9.01822 10.7743L9.88526 9.90727L10.7481 10.771L10.1715 11.3476C10.0632 11.4522 10.0198 11.6071 10.0579 11.7528C10.096 11.8984 10.2098 12.0122 10.3554 12.0503C10.5011 12.0885 10.656 12.045 10.7606 11.9367L11.3373 11.3601L12.2001 12.223L9.30447 15.1186L5.53349 11.3467ZM6.13595 21.7794L6.46925 20.6045C6.84783 20.7641 7.14906 21.0654 7.3088 21.444L6.13595 21.7794ZM16.5552 16.5789L15.9786 17.1555C15.8703 17.2601 15.8269 17.415 15.865 17.5607C15.9031 17.7064 16.0169 17.8201 16.1625 17.8583C16.3082 17.8964 16.4631 17.8529 16.5677 17.7446L17.1444 17.1672L18.0072 18.0301L17.1402 18.8971C17.0319 19.0017 16.9885 19.1566 17.0266 19.3023C17.0647 19.448 17.1784 19.5617 17.3241 19.5998C17.4698 19.638 17.6247 19.5945 17.7293 19.4862L18.5963 18.6192L19.4629 19.4862C19.6209 19.6443 19.6209 19.9005 19.4629 20.0586L17.1398 22.3818C16.9816 22.5398 16.7254 22.5398 16.5673 22.3818L12.7963 18.6108L15.692 15.7152L16.5552 16.5789ZM17.1439 8.79274C17.3603 8.79204 17.568 8.87802 17.7206 9.03148L18.8821 10.1931C19.2002 10.5115 19.2002 11.0274 18.8821 11.3459L18.3059 11.9242L15.9911 9.60934L16.5677 9.03272C16.72 8.87897 16.9275 8.79254 17.1439 8.79274Z" fill="#ED7D3A"/>
</svg>
