<svg width="34" height="43" viewBox="0 0 34 43" fill="none" xmlns="http://www.w3.org/2000/svg">
<path d="M7.22022 18.1338L11.0918 13.4761C11.3111 13.2123 11.275 12.8207 11.0111 12.6014C10.7474 12.3822 10.3557 12.4183 10.1365 12.6821L6.81783 16.6746L6.09248 15.4963C5.91269 15.2042 5.53018 15.113 5.23794 15.293C4.94586 15.4729 4.85485 15.8555 5.03463 16.1475L6.21355 18.0623C6.43648 18.4242 6.94876 18.4604 7.22022 18.1338Z" fill="white"/>
<path d="M5.03567 24.3463L6.21459 26.2612C6.43736 26.6231 6.94963 26.6592 7.22109 26.3326L11.0927 21.6749C11.3119 21.411 11.2758 21.0195 11.012 20.8002C10.7483 20.581 10.3566 20.617 10.1373 20.8808L6.81871 24.8733L6.09335 23.6951C5.91357 23.403 5.53106 23.3118 5.23881 23.4918C4.94682 23.6717 4.85581 24.0543 5.03567 24.3463Z" fill="white"/>
<path d="M5.03567 32.5997L6.21459 34.5146C6.43736 34.8765 6.94963 34.9127 7.22109 34.586L11.0927 29.9283C11.3119 29.6644 11.2758 29.2729 11.012 29.0536C10.7483 28.8344 10.3566 28.8704 10.1373 29.1343L6.81871 33.1267L6.09335 31.9485C5.91357 31.6564 5.53106 31.5653 5.23881 31.7452C4.94682 31.9251 4.85581 32.3077 5.03567 32.5997Z" fill="white"/>
<path d="M32.5039 35.0633C32.1608 35.0633 31.8828 35.3413 31.8828 35.6844V40.2055C31.8828 40.7306 31.4555 41.1579 30.9304 41.1579H2.19453C1.66941 41.1579 1.24219 40.7306 1.24219 40.2055V12.9858C1.24219 12.6427 0.964102 12.3647 0.621093 12.3647C0.278084 12.3647 0 12.6427 0 12.9858V40.2055C0 41.4156 0.984473 42.4 2.19453 42.4H30.9304C32.1405 42.4 33.1249 41.4156 33.1249 40.2055V35.6844C33.1249 35.3414 32.8469 35.0633 32.5039 35.0633Z" fill="white"/>
<path d="M30.9304 4.78581H27.8922V2.21937C27.8922 0.995653 26.8966 0 25.6728 0C24.449 0 23.4535 0.99557 23.4535 2.21937V4.78581H18.7818V2.21937C18.7818 0.99557 17.7862 0 16.5625 0C15.3388 0 14.3431 0.99557 14.3431 2.21937V4.78581H9.67141V2.21937C9.67141 0.995653 8.67584 0 7.45204 0C6.22832 0 5.23267 0.99557 5.23267 2.21937V4.78581H2.19453C0.984473 4.78581 0 5.77028 0 6.98034V10.0873C0 10.4304 0.278084 10.7084 0.621093 10.7084C0.964102 10.7084 1.24219 10.4304 1.24219 10.0873V6.98034C1.24219 6.45522 1.66941 6.02799 2.19453 6.02799H5.23267V7.01421C5.23267 8.23793 6.22824 9.23358 7.45204 9.23358C8.67584 9.23358 9.67141 8.23801 9.67141 7.01421V6.02799H14.3431V7.01421C14.3431 8.23793 15.3387 9.23358 16.5625 9.23358C17.7863 9.23358 18.7818 8.23801 18.7818 7.01421V6.02799H23.4535V7.01421C23.4535 8.23793 24.4491 9.23358 25.6729 9.23358C26.8966 9.23358 27.8923 8.23801 27.8923 7.01421V6.02799H30.9304C31.4555 6.02799 31.8828 6.45522 31.8828 6.98034V32.7858C31.8828 33.1289 32.1608 33.4069 32.5039 33.4069C32.8469 33.4069 33.1249 33.1289 33.1249 32.7858V6.98034C33.1249 5.77028 32.1405 4.78581 30.9304 4.78581ZM8.42931 7.01421C8.42931 7.55307 7.99098 7.99139 7.45212 7.99139C6.91334 7.99139 6.47493 7.55307 6.47493 7.01421C6.47493 5.69029 6.47493 2.63376 6.47493 2.21937C6.47493 1.68051 6.91326 1.24219 7.45212 1.24219C7.99098 1.24219 8.42931 1.68051 8.42931 2.21937V7.01421ZM17.5397 7.01421C17.5397 7.55307 17.1013 7.99139 16.5625 7.99139C16.0236 7.99139 15.5853 7.55307 15.5853 7.01421C15.5853 5.69029 15.5853 2.63376 15.5853 2.21937C15.5853 1.68051 16.0236 1.24219 16.5625 1.24219C17.1013 1.24219 17.5397 1.68051 17.5397 2.21937V7.01421ZM26.6501 7.01421C26.6501 7.55307 26.2118 7.99139 25.6729 7.99139C25.1341 7.99139 24.6957 7.55307 24.6957 7.01421C24.6957 5.69029 24.6957 2.63376 24.6957 2.21937C24.6957 1.68051 25.1341 1.24219 25.6729 1.24219C26.2117 1.24219 26.6501 1.68051 26.6501 2.21937V7.01421Z" fill="white"/>
<path d="M13.7254 18.648H26.8097C27.8828 18.648 28.7558 17.775 28.7558 16.7019C28.7558 15.6289 27.8828 14.7559 26.8097 14.7559H13.7254C12.6523 14.7559 11.7793 15.6289 11.7793 16.7019C11.7793 17.775 12.6523 18.648 13.7254 18.648ZM13.7254 15.998H26.8097C27.1979 15.998 27.5136 16.3138 27.5136 16.7019C27.5136 17.0901 27.1979 17.4059 26.8097 17.4059H13.7254C13.3372 17.4059 13.0215 17.0901 13.0215 16.7019C13.0215 16.3138 13.3372 15.998 13.7254 15.998Z" fill="white"/>
<path d="M13.7254 26.8643H26.8097C27.8828 26.8643 28.7558 25.9913 28.7558 24.9183C28.7558 23.8452 27.8828 22.9722 26.8097 22.9722H13.7254C12.6523 22.9722 11.7793 23.8452 11.7793 24.9183C11.7793 25.9913 12.6523 26.8643 13.7254 26.8643ZM13.7254 24.2144H26.8097C27.1979 24.2144 27.5136 24.5301 27.5136 24.9183C27.5136 25.3064 27.1979 25.6222 26.8097 25.6222H13.7254C13.3372 25.6222 13.0215 25.3064 13.0215 24.9183C13.0215 24.5301 13.3372 24.2144 13.7254 24.2144Z" fill="white"/>
<path d="M13.7254 35.0797H26.8097C27.8828 35.0797 28.7558 34.2067 28.7558 33.1336C28.7558 32.0605 27.8828 31.1875 26.8097 31.1875H13.7254C12.6523 31.1875 11.7793 32.0605 11.7793 33.1336C11.7793 34.2067 12.6523 35.0797 13.7254 35.0797ZM13.7254 32.4297H26.8097C27.1979 32.4297 27.5136 32.7454 27.5136 33.1336C27.5136 33.5217 27.1979 33.8375 26.8097 33.8375H13.7254C13.3372 33.8375 13.0215 33.5217 13.0215 33.1336C13.0215 32.7454 13.3372 32.4297 13.7254 32.4297Z" fill="white"/>
</svg>
