<svg width="30" height="30" viewBox="0 0 30 30" fill="none" xmlns="http://www.w3.org/2000/svg">
<path d="M28.8261 23.6137H6.38607V1.17417C6.38607 0.526762 5.85936 0 5.2119 0H1.17417C0.526703 0 0 0.526762 0 1.17417V28.8258C0 29.4732 0.526703 30 1.17417 30H28.8261C29.4735 30 30.0002 29.4732 30.0002 28.8258V24.7879C30.0002 24.1405 29.4735 23.6137 28.8261 23.6137ZM5.21178 28.8258H1.17417V22.3449H2.1466C2.4708 22.3449 2.73365 22.082 2.73365 21.7578C2.73365 21.4335 2.4708 21.1707 2.1466 21.1707H1.17417V18.966H3.05282C3.37702 18.966 3.63987 18.7032 3.63987 18.3789C3.63987 18.0546 3.37702 17.7918 3.05282 17.7918H1.17417V15.5871H2.1466C2.4708 15.5871 2.73365 15.3243 2.73365 15C2.73365 14.6757 2.4708 14.4129 2.1466 14.4129H1.17417V12.2082H3.05282C3.37702 12.2082 3.63987 11.9454 3.63987 11.6212C3.63987 11.2969 3.37702 11.0341 3.05282 11.0341H1.17417V8.82933H2.1466C2.4708 8.82933 2.73365 8.56647 2.73365 8.24221C2.73365 7.91795 2.4708 7.65516 2.1466 7.65516H1.17417V5.45032H3.05282C3.37702 5.45032 3.63987 5.18746 3.63987 4.86326C3.63987 4.53906 3.37702 4.27621 3.05282 4.27621H1.17417V1.17423H5.2119L5.21266 28.8259C5.21266 28.8259 5.21242 28.8259 5.2119 28.8259L5.21178 28.8258ZM28.8261 28.8258H25.6842V26.9472C25.6842 26.6229 25.4213 26.3601 25.0971 26.3601C24.7729 26.3601 24.51 26.623 24.51 26.9472V28.8258H22.3052V27.8535C22.3052 27.5292 22.0424 27.2664 21.7181 27.2664C21.3939 27.2664 21.131 27.5293 21.131 27.8535V28.8258H18.9262V26.9472C18.9262 26.6229 18.6634 26.3601 18.3391 26.3601C18.0148 26.3601 17.752 26.623 17.752 26.9472V28.8258H15.5474V27.8535C15.5474 27.5292 15.2845 27.2664 14.9603 27.2664C14.6361 27.2664 14.3733 27.5293 14.3733 27.8535V28.8258H12.1685V26.9472C12.1685 26.6229 11.9056 26.3601 11.5814 26.3601C11.2572 26.3601 10.9943 26.623 10.9943 26.9472V28.8258H8.7896V27.8535C8.7896 27.5292 8.52675 27.2664 8.20249 27.2664C7.87828 27.2664 7.61543 27.5293 7.61543 27.8535V28.8258H6.38612V24.7879H28.8261V28.8258H28.8261Z" fill="white"/>
<path d="M9.22768 17.1004L16.7255 21.4293C16.9066 21.5338 17.1096 21.5861 17.3126 21.5861C17.5155 21.5861 17.7186 21.5338 17.8996 21.4292L25.3975 17.1003C25.7596 16.8913 25.9846 16.5016 25.9846 16.0835V7.42585C25.9846 7.00772 25.7596 6.61807 25.3975 6.40901L17.8997 2.08018C17.5377 1.87112 17.0877 1.871 16.7255 2.08018L9.22774 6.40901C8.86557 6.61801 8.64062 7.00772 8.64062 7.42591V16.0836C8.64062 16.5017 8.86557 16.8915 9.22768 17.1004ZM17.8743 20.0881V18.3343C17.8743 18.01 17.6115 17.7472 17.2872 17.7472C16.963 17.7472 16.7001 18.01 16.7001 18.3343V20.0589L9.81474 16.0836V8.05585L16.7001 11.6523V13.0402C16.7001 13.3644 16.963 13.6272 17.2872 13.6272C17.6114 13.6272 17.8743 13.3644 17.8743 13.0402V11.6532L24.8103 8.05298V16.0834L17.8743 20.0881ZM17.3126 3.09697L24.1759 7.05946L17.2881 10.6346L10.4465 7.0611L17.3126 3.09697Z" fill="white"/>
<path d="M17.3126 16.2762C17.6369 16.2762 17.8997 16.0133 17.8997 15.6891C17.8997 15.3649 17.6369 15.1021 17.3126 15.1021C16.9884 15.1021 16.7256 15.3649 16.7256 15.6891C16.7256 16.0133 16.9884 16.2762 17.3126 16.2762Z" fill="white"/>
<path d="M3.19252 27.3938C3.51675 27.3938 3.77958 27.131 3.77958 26.8068C3.77958 26.4826 3.51675 26.2197 3.19252 26.2197C2.8683 26.2197 2.60547 26.4826 2.60547 26.8068C2.60547 27.131 2.8683 27.3938 3.19252 27.3938Z" fill="white"/>
<path d="M20.6787 22.8322C21.0293 22.8322 21.3135 22.548 21.3135 22.1974C21.3135 21.8468 21.0293 21.5626 20.6787 21.5626C20.3281 21.5626 20.0439 21.8468 20.0439 22.1974C20.0439 22.548 20.3281 22.8322 20.6787 22.8322Z" fill="white"/>
</svg>
