<svg width="41" height="50" viewBox="0 0 41 50" fill="none" xmlns="http://www.w3.org/2000/svg">
<path fill-rule="evenodd" clip-rule="evenodd" d="M20.3483 0C11.69 0 4.65039 7.10242 4.65039 15.863C4.65039 18.8305 5.95738 22.5119 7.85973 26.1841C12.0482 34.2702 19.025 42.4145 19.025 42.4145C19.3552 42.8006 19.839 43.0238 20.3483 43.0238C20.8576 43.0238 21.3413 42.8006 21.6715 42.4145C21.6715 42.4145 28.6484 34.2702 32.8368 26.1841C34.7392 22.5119 36.0461 18.8305 36.0461 15.863C36.0461 7.10242 29.0065 0 20.3483 0ZM20.3483 9.30245C16.818 9.30245 13.9528 12.1676 13.9528 15.6979C13.9528 19.2282 16.818 22.0933 20.3483 22.0933C23.8785 22.0933 26.7437 19.2282 26.7437 15.6979C26.7437 12.1676 23.8785 9.30245 20.3483 9.30245Z" fill="white"/>
<path fill-rule="evenodd" clip-rule="evenodd" d="M31.4748 37.5045C33.3656 38.072 34.9237 38.7743 36.0005 39.5976C36.6982 40.1278 37.2098 40.6464 37.2098 41.279C37.2098 41.6511 36.9982 41.9883 36.7005 42.3255C36.2075 42.8814 35.4749 43.3814 34.5679 43.8465C31.3632 45.486 26.1817 46.5116 20.3491 46.5116C14.5165 46.5116 9.33501 45.486 6.13031 43.8465C5.22332 43.3814 4.49076 42.8814 3.99773 42.3255C3.70005 41.9883 3.48842 41.6511 3.48842 41.279C3.48842 40.6464 4.00005 40.1278 4.69774 39.5976C5.77449 38.7743 7.33265 38.072 9.22338 37.5045C10.1443 37.2278 10.6676 36.2534 10.3908 35.3324C10.1141 34.4092 9.13965 33.8859 8.21871 34.1626C5.3396 35.0301 3.10237 36.2185 1.75816 37.5325C0.576752 38.6836 0 39.972 0 41.279C0 42.9116 0.923268 44.5395 2.80004 45.8977C6.0931 48.2791 12.7071 50.0001 20.3491 50.0001C27.9911 50.0001 34.6051 48.2791 37.8982 45.8977C39.7749 44.5395 40.6982 42.9116 40.6982 41.279C40.6982 39.972 40.1215 38.6836 38.94 37.5325C37.5958 36.2185 35.3586 35.0301 32.4795 34.1626C31.5586 33.8859 30.5841 34.4092 30.3074 35.3324C30.0306 36.2534 30.5539 37.2278 31.4748 37.5045Z" fill="white"/>
</svg>
