<svg width="160" height="24" viewBox="0 0 160 24" fill="none" xmlns="http://www.w3.org/2000/svg">
<path d="M11.0489 2.92705C11.3483 2.00574 12.6517 2.00574 12.9511 2.92705L14.4697 7.60081C14.6035 8.01284 14.9875 8.2918 15.4207 8.2918H20.335C21.3037 8.2918 21.7065 9.53141 20.9228 10.1008L16.947 12.9894C16.5966 13.244 16.4499 13.6954 16.5838 14.1074L18.1024 18.7812C18.4017 19.7025 17.3472 20.4686 16.5635 19.8992L12.5878 17.0106C12.2373 16.756 11.7627 16.756 11.4122 17.0106L7.43648 19.8992C6.65276 20.4686 5.59828 19.7025 5.89763 18.7812L7.41623 14.1074C7.55011 13.6954 7.40345 13.244 7.05296 12.9894L3.07722 10.1008C2.29351 9.53141 2.69628 8.2918 3.66501 8.2918H8.57929C9.01252 8.2918 9.39647 8.01284 9.53035 7.60081L11.0489 2.92705Z" fill="#ED7D3A"/>
<path d="M45.0489 2.92705C45.3483 2.00574 46.6517 2.00574 46.9511 2.92705L48.4697 7.60081C48.6035 8.01284 48.9875 8.2918 49.4207 8.2918H54.335C55.3037 8.2918 55.7065 9.53141 54.9228 10.1008L50.947 12.9894C50.5966 13.244 50.4499 13.6954 50.5838 14.1074L52.1024 18.7812C52.4017 19.7025 51.3472 20.4686 50.5635 19.8992L46.5878 17.0106C46.2373 16.756 45.7627 16.756 45.4122 17.0106L41.4365 19.8992C40.6528 20.4686 39.5983 19.7025 39.8976 18.7812L41.4162 14.1074C41.5501 13.6954 41.4034 13.244 41.053 12.9894L37.0772 10.1008C36.2935 9.53141 36.6963 8.2918 37.665 8.2918H42.5793C43.0125 8.2918 43.3965 8.01284 43.5303 7.60081L45.0489 2.92705Z" fill="#ED7D3A"/>
<path d="M79.0489 2.92705C79.3483 2.00574 80.6517 2.00574 80.9511 2.92705L82.4697 7.60081C82.6035 8.01284 82.9875 8.2918 83.4207 8.2918H88.335C89.3037 8.2918 89.7065 9.53141 88.9228 10.1008L84.947 12.9894C84.5966 13.244 84.4499 13.6954 84.5838 14.1074L86.1024 18.7812C86.4017 19.7025 85.3472 20.4686 84.5635 19.8992L80.5878 17.0106C80.2373 16.756 79.7627 16.756 79.4122 17.0106L75.4365 19.8992C74.6528 20.4686 73.5983 19.7025 73.8976 18.7812L75.4162 14.1074C75.5501 13.6954 75.4034 13.244 75.053 12.9894L71.0772 10.1008C70.2935 9.53141 70.6963 8.2918 71.665 8.2918H76.5793C77.0125 8.2918 77.3965 8.01284 77.5303 7.60081L79.0489 2.92705Z" fill="#ED7D3A"/>
<path d="M113.049 2.92705C113.348 2.00574 114.652 2.00574 114.951 2.92705L116.47 7.60081C116.604 8.01284 116.987 8.2918 117.421 8.2918H122.335C123.304 8.2918 123.706 9.53141 122.923 10.1008L118.947 12.9894C118.597 13.244 118.45 13.6954 118.584 14.1074L120.102 18.7812C120.402 19.7025 119.347 20.4686 118.564 19.8992L114.588 17.0106C114.237 16.756 113.763 16.756 113.412 17.0106L109.436 19.8992C108.653 20.4686 107.598 19.7025 107.898 18.7812L109.416 14.1074C109.55 13.6954 109.403 13.244 109.053 12.9894L105.077 10.1008C104.294 9.53141 104.696 8.2918 105.665 8.2918H110.579C111.013 8.2918 111.396 8.01284 111.53 7.60081L113.049 2.92705Z" fill="#ED7D3A"/>
<path d="M147.049 2.92705C147.348 2.00574 148.652 2.00574 148.951 2.92705L150.47 7.60081C150.604 8.01284 150.987 8.2918 151.421 8.2918H156.335C157.304 8.2918 157.706 9.53141 156.923 10.1008L152.947 12.9894C152.597 13.244 152.45 13.6954 152.584 14.1074L154.102 18.7812C154.402 19.7025 153.347 20.4686 152.564 19.8992L148.588 17.0106C148.237 16.756 147.763 16.756 147.412 17.0106L143.436 19.8992C142.653 20.4686 141.598 19.7025 141.898 18.7812L143.416 14.1074C143.55 13.6954 143.403 13.244 143.053 12.9894L139.077 10.1008C138.294 9.53141 138.696 8.2918 139.665 8.2918H144.579C145.013 8.2918 145.396 8.01284 145.53 7.60081L147.049 2.92705Z" fill="#ED7D3A"/>
</svg>
