<svg width="20" height="25" viewBox="0 0 20 25" fill="none" xmlns="http://www.w3.org/2000/svg">
<path d="M18.6353 17.6291C18.6324 17.6243 18.6296 17.6195 18.6267 17.6147C18.6057 17.5804 18.5842 17.5464 18.5622 17.5126C18.55 17.4939 18.5378 17.4753 18.5254 17.4569C18.5104 17.4345 18.4951 17.4122 18.4795 17.39C18.4595 17.3612 18.439 17.3328 18.4183 17.3046C18.4121 17.2962 18.4063 17.2876 18.4001 17.2792C18.3957 17.2733 18.391 17.2677 18.3865 17.2618C18.3615 17.2287 18.336 17.196 18.3101 17.1637C18.301 17.1523 18.292 17.141 18.2829 17.1298C18.257 17.0982 18.2306 17.0672 18.2039 17.0364C18.1928 17.0236 18.1818 17.0106 18.1706 16.9979C18.1483 16.9729 18.1254 16.9483 18.1026 16.9238C18.0855 16.9054 18.0687 16.887 18.0513 16.8689C18.0383 16.8555 18.0249 16.8424 18.0117 16.8291C17.5061 16.3173 16.883 15.9435 16.1814 15.737C16.1694 15.7334 16.1572 15.7305 16.1448 15.7282C16.1447 15.7282 12.8344 15.1132 12.8343 15.1132C12.8284 15.1121 12.8226 15.1118 12.8167 15.1109C12.6618 15.0857 12.5036 15.1064 12.3615 15.1687C12.2463 15.0271 12.1704 14.8328 12.1704 14.6532V14.0539C12.3796 13.9203 12.5828 13.7701 12.7789 13.6013C13.5992 12.8949 14.1159 11.8753 14.2273 10.7631C14.8297 10.7353 15.3111 10.2365 15.3111 9.62744V8.77354C15.3111 8.42822 15.1563 8.10869 14.8958 7.89541V5.93242C16.0928 5.34253 16.3529 4.65479 16.3529 4.16953C16.3529 3.33691 15.5774 2.29473 14.3291 1.44961C13.5293 0.908252 11.8549 0 9.62642 0C7.3979 0 5.72354 0.908252 4.92378 1.44961C3.67544 2.29468 2.89995 3.33687 2.89995 4.16953C2.89995 4.65479 3.16006 5.34253 4.35703 5.93242V7.89541C4.09658 8.10869 3.9418 8.42822 3.9418 8.77354V9.62744C3.9418 10.2365 4.42319 10.7353 5.02554 10.7631C5.13696 11.8753 5.65366 12.895 6.47402 13.6013C6.67012 13.7701 6.87329 13.9203 7.08252 14.0539V14.6532C7.08252 14.8328 7.00659 15.0271 6.89136 15.1686C6.74395 15.104 6.579 15.0833 6.4186 15.1132L3.10811 15.7282C3.09575 15.7305 3.08354 15.7334 3.07153 15.737C2.37031 15.9434 1.74751 16.3169 1.24194 16.8283C1.22842 16.8419 1.21475 16.8554 1.20142 16.8691C1.18433 16.8869 1.16768 16.9051 1.15088 16.9232C1.12778 16.948 1.10474 16.9728 1.08218 16.9981C1.07109 17.0106 1.06025 17.0234 1.04927 17.0361C1.02241 17.067 0.995898 17.0982 0.969971 17.1299C0.96084 17.141 0.951953 17.1523 0.94292 17.1636C0.916944 17.196 0.891358 17.2287 0.866358 17.2618C0.861914 17.2677 0.857227 17.2733 0.852783 17.2792C0.846533 17.2876 0.840772 17.2962 0.834619 17.3046C0.813867 17.3328 0.793408 17.3612 0.77334 17.39C0.757764 17.4122 0.742481 17.4346 0.727393 17.457C0.715039 17.4754 0.702881 17.4939 0.69082 17.5125C0.668799 17.5463 0.647217 17.5804 0.626172 17.6147C0.623291 17.6195 0.62041 17.6243 0.617578 17.629C0.212842 18.2959 0 19.0533 0 19.8432V20.2896C0 20.492 0.164014 20.656 0.366309 20.656C0.568603 20.656 0.732617 20.4919 0.732617 20.2896V19.8432C0.732617 19.4861 0.785547 19.1373 0.8875 18.804C1.10308 18.9754 1.3647 19.0667 1.63662 19.0667C1.68008 19.0667 1.72388 19.0644 1.76768 19.0596C2.08843 19.0252 2.37661 18.868 2.5791 18.6168L2.97773 18.1225C3.18022 17.8713 3.2728 17.5563 3.23843 17.2356C3.21108 16.9807 3.10591 16.7465 2.93794 16.5594C3.04321 16.5166 3.15073 16.478 3.26094 16.4449L5.37329 16.0525L7.04946 18.3981C7.21724 18.6328 7.47993 18.7622 7.75239 18.7622C7.8667 18.7622 7.98272 18.7394 8.09414 18.6921L8.20571 18.6447L8.69351 19.2118L7.98994 24.2673H3.38672V21.297C3.38672 21.0946 3.22271 20.9307 3.02041 20.9307C2.81812 20.9307 2.6541 21.0946 2.6541 21.297V24.2673H1.18877C0.937256 24.2673 0.732715 24.0627 0.732715 23.8113V21.9942C0.732715 21.7918 0.568701 21.6279 0.366406 21.6279C0.164111 21.6279 9.77889e-05 21.7919 9.77889e-05 21.9942V23.8113C9.77889e-05 24.4667 0.53335 25 1.18882 25H18.0642C18.7197 25 19.2529 24.4667 19.2529 23.8113V19.8433C19.2528 19.0533 19.04 18.296 18.6353 17.6291ZM2.40737 17.6627L2.00874 18.1571C1.9291 18.2559 1.81577 18.3177 1.6896 18.3313C1.56362 18.3448 1.43955 18.3084 1.34077 18.2288L1.18789 18.1055C1.2207 18.047 1.25508 17.9896 1.29092 17.9333C1.29131 17.9327 1.2918 17.932 1.29219 17.9313C1.32295 17.8831 1.35532 17.8361 1.38828 17.7896C1.39829 17.7755 1.40825 17.7615 1.41846 17.7475C1.44785 17.7073 1.47808 17.6678 1.50908 17.6289C1.51709 17.6188 1.52495 17.6086 1.53306 17.5987C1.56807 17.5558 1.6042 17.5139 1.64116 17.4727C1.65195 17.4606 1.66294 17.4488 1.67388 17.437C1.7105 17.3973 1.74771 17.3582 1.78613 17.3202C1.7894 17.3169 1.79263 17.3136 1.79595 17.3103C1.9376 17.1714 2.09116 17.0441 2.25557 16.93L2.33584 16.9947C2.43462 17.0744 2.49648 17.1877 2.51001 17.3139C2.52344 17.44 2.48706 17.5638 2.40737 17.6627ZM16.9171 16.9946L16.9974 16.9299C17.1618 17.044 17.3153 17.1713 17.457 17.3102C17.4603 17.3135 17.4635 17.3168 17.4668 17.3201C17.5052 17.3581 17.5424 17.3972 17.5791 17.4369C17.59 17.4487 17.601 17.4605 17.6118 17.4726C17.6487 17.5138 17.6849 17.5557 17.7199 17.5986C17.728 17.6085 17.7358 17.6187 17.7438 17.6288C17.7749 17.6677 17.8051 17.7072 17.8345 17.7474C17.8447 17.7613 17.8547 17.7754 17.8646 17.7895C17.8976 17.836 17.93 17.8831 17.9607 17.9312C17.9612 17.9319 17.9616 17.9325 17.962 17.9332C17.9979 17.9895 18.0323 18.0469 18.065 18.1054L17.9122 18.2287C17.8133 18.3083 17.6894 18.3446 17.5633 18.3312C17.4372 18.3177 17.3238 18.2558 17.2441 18.157L16.8455 17.6626C16.6811 17.4587 16.7132 17.1591 16.9171 16.9946ZM12.5434 15.9203C12.5439 15.9199 12.5444 15.9195 12.5449 15.9191L12.6407 15.8475C12.6578 15.8347 12.6796 15.8298 12.7004 15.8335L13.0846 15.9049L11.6074 17.9721C11.5704 18.0239 11.5037 18.0426 11.4452 18.0178L10.3561 17.5551L12.5434 15.9203ZM9.62642 17.1858L7.4918 15.5903C7.69346 15.3255 7.81519 14.9886 7.81519 14.6532V14.4387C8.38022 14.6754 8.98398 14.7992 9.62236 14.8063C9.62373 14.8063 9.6251 14.8063 9.62646 14.8063C9.62783 14.8063 9.6292 14.8063 9.63057 14.8063C10.2689 14.7992 10.8727 14.6754 11.4377 14.4387V14.6532C11.4377 14.9886 11.5595 15.3255 11.7611 15.5903L9.62642 17.1858ZM10.3395 18.3441L10.0058 18.732H9.24717L8.91348 18.3441L9.62646 18.0412L10.3395 18.3441ZM4.35703 5.09736C3.88623 4.80713 3.63262 4.48652 3.63262 4.16948C3.63262 3.50913 4.5148 2.61118 5.33447 2.0563C6.06475 1.56201 7.59336 0.732666 9.62642 0.732666C11.6595 0.732666 13.1881 1.56201 13.9184 2.05635C14.738 2.61123 15.6202 3.50918 15.6202 4.16953C15.6202 4.48652 15.3666 4.80718 14.8958 5.09741V4.43125C14.8958 3.91392 14.5457 3.46309 14.0442 3.33491C13.0958 3.09253 11.231 2.68589 9.39707 2.68516C9.39541 2.68516 9.39404 2.68516 9.39238 2.68516C7.80435 2.68516 6.22661 3.03481 5.18252 3.32827C4.69648 3.46489 4.35703 3.91284 4.35703 4.41758V5.09736ZM5.62749 6.3835C5.62236 6.38022 5.61714 6.377 5.61206 6.37373C5.58833 6.35854 5.56548 6.34326 5.54326 6.32793C5.53423 6.32168 5.52529 6.31543 5.5165 6.30913C5.49834 6.29624 5.48071 6.28325 5.46362 6.27026C5.45186 6.26128 5.44048 6.2523 5.42925 6.24331C5.41577 6.23257 5.40254 6.22183 5.38984 6.21104C5.37632 6.19951 5.36348 6.18804 5.35088 6.17651C5.34141 6.16787 5.33184 6.15928 5.32285 6.15063C5.3085 6.13677 5.29507 6.12295 5.28203 6.10913C5.27578 6.10254 5.26924 6.0959 5.26328 6.08931C5.26265 6.08857 5.26211 6.08784 5.26147 6.08716H11.4116C11.6139 6.08716 11.7779 5.92314 11.7779 5.72085C11.7779 5.51851 11.6139 5.35454 11.4116 5.35454H5.0897V4.41763C5.0897 4.2397 5.20938 4.08179 5.38076 4.03364C6.38062 3.75259 7.88765 3.41782 9.39238 3.41782C9.39375 3.41782 9.39536 3.41782 9.39673 3.41782C11.1506 3.41855 12.9477 3.81089 13.8628 4.04478C14.0396 4.08994 14.1631 4.24888 14.1631 4.43125V5.35449H13.1807C12.9784 5.35449 12.8144 5.51851 12.8144 5.7208C12.8144 5.92319 12.9784 6.08716 13.1807 6.08716H13.9916C13.9909 6.08789 13.9904 6.08862 13.9897 6.08931C13.9838 6.0959 13.9772 6.10254 13.971 6.10913C13.9579 6.12295 13.9445 6.13677 13.9302 6.15063C13.9212 6.15928 13.9116 6.16787 13.9021 6.17651C13.8896 6.18804 13.8767 6.19951 13.8632 6.21104C13.8505 6.22183 13.8373 6.23257 13.8238 6.24331C13.8125 6.2523 13.8012 6.26128 13.7894 6.27026C13.7723 6.28325 13.7547 6.29624 13.7365 6.30913C13.7277 6.31538 13.7188 6.32168 13.7098 6.32793C13.6875 6.34326 13.6647 6.35854 13.641 6.37373C13.6359 6.377 13.6307 6.38022 13.6255 6.3835C13.4733 6.4793 13.2919 6.57173 13.0846 6.65747C13.0802 6.65928 13.0763 6.66182 13.0721 6.66377C12.2872 6.9873 11.1078 7.23179 9.62651 7.23179C8.14526 7.23179 6.96582 6.9873 6.18096 6.66377C6.17671 6.66182 6.1728 6.65928 6.16846 6.65747C5.96113 6.57173 5.77974 6.4793 5.62749 6.3835ZM5.66206 7.23477V7.94844C5.46064 7.84404 5.25684 7.78789 5.08975 7.75786V6.90659C5.24687 7.01826 5.43584 7.12852 5.66206 7.23477ZM13.5908 7.23472C13.817 7.12852 14.006 7.01826 14.1631 6.90659V7.75776C13.996 7.78779 13.7922 7.84399 13.5908 7.94839V7.23472ZM6.95205 13.046C6.20181 12.4001 5.75869 11.432 5.73633 10.3901C5.73208 10.1909 5.56934 10.0316 5.37012 10.0316H5.07866C4.85581 10.0316 4.67446 9.85034 4.67446 9.62744V8.77354C4.67446 8.65063 4.72988 8.53677 4.8231 8.46089C4.95225 8.47231 5.19336 8.51103 5.39785 8.64092C5.3999 8.64224 5.4019 8.64351 5.40395 8.64482C5.43281 8.66348 5.46084 8.68403 5.48774 8.70654C5.49087 8.70913 5.49399 8.71177 5.49707 8.71445C5.51016 8.72573 5.523 8.73735 5.53545 8.74966C5.54634 8.7604 5.55771 8.77041 5.56934 8.77998C5.57275 8.78281 5.57622 8.78545 5.57969 8.78818C5.58848 8.79507 5.59741 8.80161 5.60654 8.80781C5.61016 8.81025 5.61367 8.81274 5.61733 8.81509C5.62974 8.8231 5.64229 8.83066 5.65522 8.83745C5.65527 8.8375 5.65537 8.83755 5.65542 8.8376C5.66855 8.84448 5.68198 8.85063 5.69561 8.8563C5.69937 8.85786 5.70317 8.85928 5.70698 8.86074C5.71733 8.86479 5.72773 8.86846 5.73828 8.87178C5.74224 8.87305 5.74614 8.87432 5.75015 8.87544C5.76397 8.87944 5.77788 8.88296 5.79194 8.88574C5.79219 8.88579 5.79238 8.88584 5.79263 8.88589C5.80708 8.88872 5.82168 8.89072 5.83633 8.89229C5.84028 8.89272 5.84424 8.89297 5.84814 8.89326C5.85923 8.89419 5.87036 8.89473 5.88154 8.89487C5.88408 8.89492 5.88657 8.89522 5.88906 8.89522C5.89067 8.89522 5.89233 8.89497 5.89395 8.89497C5.90835 8.89482 5.9228 8.89424 5.93726 8.89287C5.93765 8.89282 5.93804 8.89282 5.93838 8.89282C5.95317 8.89136 5.96797 8.88906 5.98272 8.88623C5.98687 8.88545 5.99102 8.88447 5.99517 8.88359C6.0061 8.8812 6.01699 8.87847 6.02788 8.87539C6.03218 8.87417 6.03647 8.873 6.04077 8.87163C6.05522 8.86704 6.06958 8.86206 6.08379 8.85615C6.27266 8.77729 6.39468 8.59429 6.39468 8.3898V7.51372C7.33794 7.81079 8.49775 7.9644 9.62642 7.9644C10.7551 7.9644 11.9149 7.81079 12.8582 7.51372V8.3898C12.8582 8.59429 12.9802 8.77734 13.169 8.85615C13.1833 8.86211 13.1978 8.86714 13.2123 8.87173C13.2164 8.873 13.2205 8.87412 13.2246 8.87534C13.2357 8.87852 13.2469 8.88135 13.2581 8.88374C13.262 8.88457 13.2659 8.8855 13.2699 8.88623C13.2995 8.89189 13.3294 8.89478 13.3592 8.89502C13.3607 8.89502 13.3623 8.89526 13.3638 8.89526C13.3661 8.89526 13.3685 8.89497 13.3708 8.89492C13.3823 8.89478 13.3938 8.89419 13.4052 8.89326C13.4089 8.89297 13.4126 8.89272 13.4163 8.89233C13.4456 8.88926 13.4746 8.88359 13.5029 8.87539C13.5067 8.87427 13.5105 8.87305 13.5144 8.87183C13.525 8.86851 13.5355 8.86475 13.546 8.86069C13.5498 8.85923 13.5536 8.85781 13.5573 8.85625C13.5709 8.85059 13.5844 8.84443 13.5975 8.83755C13.5976 8.8375 13.5977 8.83745 13.5978 8.8374C13.6107 8.83062 13.6232 8.82305 13.6356 8.81509C13.6393 8.81274 13.6428 8.8102 13.6465 8.80776C13.6556 8.80156 13.6645 8.79502 13.6732 8.78818C13.6768 8.78545 13.6803 8.78276 13.6837 8.77993C13.6953 8.77031 13.7067 8.76035 13.7175 8.74961C13.7298 8.7374 13.7426 8.72593 13.7556 8.71475C13.7589 8.71182 13.7624 8.70894 13.7658 8.70605C13.7778 8.696 13.7899 8.68628 13.8024 8.67705C13.8036 8.67617 13.8046 8.67529 13.8058 8.67441C13.8193 8.6645 13.833 8.65522 13.8469 8.64619C13.8506 8.64375 13.8543 8.64141 13.8581 8.63901C13.8705 8.63125 13.883 8.62373 13.8955 8.6166C13.8973 8.61558 13.8991 8.61445 13.901 8.61343C13.9153 8.60547 13.9297 8.59795 13.9442 8.59077C13.9478 8.58896 13.9514 8.58726 13.955 8.5855C13.968 8.57925 13.9811 8.57319 13.9941 8.56753C13.9959 8.56675 13.9977 8.56592 13.9995 8.56514C14.0145 8.55869 14.0295 8.55269 14.0445 8.54697C14.0472 8.54595 14.0499 8.54497 14.0525 8.54399C14.0668 8.53867 14.081 8.53364 14.0952 8.52896C14.0959 8.52871 14.0967 8.52842 14.0975 8.52817C14.1134 8.52295 14.1292 8.51812 14.1447 8.51362C14.1453 8.51348 14.1459 8.51328 14.1465 8.51313C14.2581 8.4811 14.3603 8.46699 14.4298 8.46079C14.5231 8.53672 14.5785 8.65054 14.5785 8.77349V9.62739C14.5785 9.85029 14.3972 10.0316 14.1743 10.0316H13.8829C13.6836 10.0316 13.5209 10.1909 13.5166 10.39C13.4943 11.432 13.0512 12.4 12.3009 13.046C11.5229 13.7159 10.6232 14.0616 9.62656 14.0736C8.62979 14.0617 7.73013 13.716 6.95205 13.046ZM7.80767 18.0178C7.74902 18.0426 7.68237 18.0238 7.64546 17.9722L6.16821 15.905L6.55244 15.8336C6.57334 15.8298 6.59507 15.8348 6.61211 15.8475L6.70796 15.9191C6.7085 15.9195 6.70898 15.9199 6.70952 15.9203L8.89668 17.5551L7.80767 18.0178ZM8.72959 24.2673L9.3979 19.4647H9.85493L10.5232 24.2673H8.72959ZM18.0642 24.2673H16.5989V21.297C16.5989 21.0946 16.4349 20.9307 16.2326 20.9307C16.0303 20.9307 15.8663 21.0946 15.8663 21.297V24.2673H11.263L10.5595 19.2118L11.0473 18.6447L11.1588 18.6921C11.2703 18.7394 11.3862 18.7622 11.5005 18.7622C11.7729 18.7622 12.0358 18.6328 12.2035 18.398L13.8796 16.0525L15.992 16.4449C16.1022 16.478 16.2098 16.5166 16.315 16.5594C15.9276 16.9922 15.8989 17.6559 16.275 18.1224L16.6737 18.6168C16.8762 18.868 17.1644 19.0252 17.4851 19.0596C17.529 19.0643 17.5727 19.0667 17.6162 19.0667C17.888 19.0667 18.1497 18.9753 18.3653 18.8039C18.4672 19.1372 18.5202 19.4861 18.5202 19.8431V23.8113H18.5202C18.5203 24.0627 18.3156 24.2673 18.0642 24.2673Z" fill="#ED7D3A"/>
<path d="M14.6267 20.9307H12.6976C12.3676 20.9307 12.0991 21.1991 12.0991 21.5291V22.5569C12.0991 22.8869 12.3676 23.1553 12.6976 23.1553H14.6267C14.9567 23.1553 15.2251 22.8869 15.2251 22.5569V21.5291C15.2251 21.1991 14.9566 20.9307 14.6267 20.9307ZM12.8317 22.4226V21.6633H14.4924V22.4226H12.8317Z" fill="#ED7D3A"/>
<path d="M6.55488 20.9307H4.62573C4.29575 20.9307 4.02734 21.1991 4.02734 21.5291V22.5569C4.02734 22.8869 4.2958 23.1553 4.62573 23.1553H6.55488C6.88486 23.1553 7.15332 22.8869 7.15332 22.5569V21.5291C7.15337 21.1991 6.88486 20.9307 6.55488 20.9307ZM6.4207 22.4227H4.76001V21.6633H6.4207V22.4227Z" fill="#ED7D3A"/>
</svg>
