<svg width="30" height="30" viewBox="0 0 30 30" fill="none" xmlns="http://www.w3.org/2000/svg">
<path fill-rule="evenodd" clip-rule="evenodd" d="M29.9997 0L29.9588 8.51602L27.6518 8.50486L27.6737 3.95723L19.7697 11.8609L18.1388 10.2299L26.0428 2.32589L21.4948 2.34784L21.4836 0.0408842L29.9997 0ZM11.8609 19.77L3.95723 27.6741L8.50486 27.6521L8.51602 29.9591L0 30L0.0409227 21.484L2.34788 21.4951L2.32593 26.0432L10.2299 18.1391L11.8609 19.77Z" fill="white"/>
<path fill-rule="evenodd" clip-rule="evenodd" d="M0 0L8.51602 0.0409227L8.50486 2.34788L3.95723 2.32593L11.8609 10.23L10.2299 11.8609L2.32589 3.95727L2.34784 8.5049L0.0408835 8.51606L0 0ZM19.7705 18.1391L27.6745 26.0431L27.6526 21.4951L29.9596 21.4839L30.0005 30L21.4845 29.959L21.4956 27.6521L26.0436 27.674L18.1396 19.77L19.7705 18.1391Z" fill="white"/>
</svg>
