<svg width="43" height="41" viewBox="0 0 43 41" fill="none" xmlns="http://www.w3.org/2000/svg">
<path d="M28.7344 36.9173C23.2333 36.9173 18.7578 32.4418 18.7578 26.9407C18.7578 21.4396 23.2333 16.9641 28.7344 16.9641C34.2355 16.9641 38.711 21.4396 38.711 26.9407C38.711 32.4418 34.2355 36.9173 28.7344 36.9173ZM28.7344 18.9594C24.3327 18.9594 20.7531 22.539 20.7531 26.9407C20.7531 31.3424 24.3327 34.922 28.7344 34.922C33.1361 34.922 36.7157 31.3424 36.7157 26.9407C36.7157 22.539 33.1361 18.9594 28.7344 18.9594Z" fill="white"/>
<path d="M41.7048 40.9079C41.4494 40.9079 41.194 40.8102 40.9984 40.6166L34.8768 34.495C34.4877 34.1059 34.4877 33.4734 34.8768 33.0843C35.2659 32.6952 35.8984 32.6952 36.2875 33.0843L42.4091 39.2059C42.7982 39.595 42.7982 40.2275 42.4091 40.6166C42.2156 40.8102 41.9602 40.9079 41.7048 40.9079Z" fill="white"/>
<path d="M19.7558 40.8766H10.7769C8.57605 40.8766 6.78625 39.0868 6.78625 36.886V22.9187H2.79561C1.67624 22.9187 0.800293 22.0428 0.800293 20.9234C0.800293 20.3627 1.04372 19.808 1.45077 19.4429L21.0727 1.23561C21.4538 0.880447 22.0464 0.880447 22.4296 1.23561L28.7348 7.08389V3.96321C28.7348 3.41251 29.1817 2.96555 29.7324 2.96555H35.7184C36.2691 2.96555 36.716 3.41251 36.716 3.96321V14.4825L42.0655 19.4529C42.4586 19.808 42.702 20.3627 42.702 20.9234C42.702 21.3824 42.5523 21.8153 42.269 22.1765C41.9278 22.6115 41.3013 22.6853 40.8683 22.3461C40.4353 22.0069 40.3595 21.3804 40.6987 20.9454C40.7067 20.9374 40.7067 20.9334 40.7067 20.9234L35.038 15.6478C34.8364 15.4602 34.7207 15.1949 34.7207 14.9175V4.96087H30.7301V9.37053C30.7301 9.7676 30.4946 10.1268 30.1315 10.2844C29.7663 10.444 29.3413 10.3702 29.054 10.1008L21.7511 3.3287L2.79561 20.9174L7.78391 20.9234C8.33462 20.9234 8.78157 21.3704 8.78157 21.9211V36.886C8.78157 37.9854 9.67547 38.8813 10.7769 38.8813H19.7558C20.3065 38.8813 20.7535 39.3283 20.7535 39.879C20.7535 40.4297 20.3065 40.8766 19.7558 40.8766Z" fill="white"/>
</svg>
