<svg width="56" height="57" viewBox="0 0 56 57" fill="none" xmlns="http://www.w3.org/2000/svg">
<path fill-rule="evenodd" clip-rule="evenodd" d="M32.9219 29.9286L34.9871 44.1069C35.0391 44.4708 35.3763 44.7237 35.7402 44.6717C36.1042 44.6197 36.3571 44.2826 36.305 43.9186L34.2388 29.7365C34.2052 29.5011 34.0486 29.3016 33.8279 29.2129C33.6071 29.1244 33.356 29.1603 33.1689 29.3071C32.9818 29.4539 32.8874 29.6894 32.921 29.9248L32.9219 29.9286Z" fill="white"/>
<path d="M20.3823 46.9362L23.7339 45.263C23.8489 45.2094 23.9538 45.1362 24.044 45.0469C24.1892 44.9005 24.2926 44.7178 24.3434 44.5179L27.7887 30.7746C28.2071 30.9753 28.6399 31.1448 29.0835 31.2815L29.5965 34.8067C29.6414 35.1037 29.8011 35.3712 30.0412 35.5517L31.0372 36.2991L30.3797 37.5102C30.1331 37.9587 30.2161 38.5165 30.5825 38.8737C30.7885 39.0615 31.0088 39.2331 31.2414 39.3867L31.5135 39.5853L30.8503 40.8048C30.5844 41.3029 30.7215 41.9204 31.1732 42.2592L31.996 42.8776L31.3606 44.0515C30.84 45.003 31.149 46.1953 32.0661 46.7742L34.8788 48.5515C35.3237 48.8407 35.9099 48.7818 36.2884 48.4098C36.3096 48.3886 36.3313 48.3669 36.3501 48.3425L38.8098 45.5213C39.0395 45.271 39.1433 44.93 39.0921 44.5942L36.9855 30.1241C39.7935 28.2592 41.3731 25.0214 41.1146 21.6606C40.8561 18.2996 38.7998 15.3415 35.7396 13.9281C36.3697 10.5694 34.8792 7.16746 31.9831 5.3536C29.087 3.53974 25.3757 3.68392 22.6289 5.71691C19.8822 7.7499 18.6601 11.2572 19.5488 14.5569C17.6568 16.4031 16.6412 18.968 16.7563 21.6089C16.8714 24.2498 18.1063 26.7166 20.1517 28.3912L19.279 31.86C19.2132 32.1486 19.2615 32.4514 19.4136 32.7053L20.0504 33.7723L18.982 34.6412C18.5807 34.9616 18.4431 35.5108 18.646 35.9826C18.7684 36.2384 18.9105 36.4844 19.071 36.7182L19.2428 36.9973L18.1767 37.8676C17.728 38.2216 17.6112 38.8535 17.9037 39.3445L18.4323 40.2279L17.4006 41.0713C17.0541 41.3478 16.8086 41.731 16.7022 42.1613C16.5484 42.7475 16.6634 43.3718 17.0161 43.8647L18.9383 46.5728C19.2563 47.0447 19.8788 47.2013 20.3823 46.9362ZM39.559 20.387C40.4531 23.8122 38.9702 27.4155 35.9241 29.219C35.6925 29.3566 35.5668 29.6203 35.6055 29.8869L37.7634 44.6972L35.4577 47.3419L32.7796 45.654C32.5993 45.5395 32.4772 45.3526 32.4449 45.1415C32.4236 44.986 32.4528 44.8277 32.5282 44.6901L33.2431 43.3699C33.5166 42.8728 33.3797 42.2502 32.9231 41.9136L32.1004 41.2952L32.7636 40.0757C33.0373 39.5778 32.8994 38.954 32.4411 38.618L32.0218 38.3106C31.8626 38.1949 31.7154 38.089 31.6189 38.015L32.2877 36.7843C32.5582 36.2875 32.4203 35.6672 31.9648 35.3318L30.9002 34.5326L30.3363 30.6618C30.2977 30.3959 30.103 30.1792 29.8426 30.1126C25.9848 29.131 23.4386 25.4588 23.8723 21.5018C24.3059 17.5448 27.5869 14.5111 31.5656 14.3882C32.4421 14.3584 33.3174 14.4754 34.1552 14.7346C33.8727 15.5355 33.4447 16.2776 32.8929 16.9232C31.8667 16.1897 30.4661 16.2799 29.5425 17.1389C28.6188 17.9979 28.4274 19.3882 29.0846 20.4649C29.7417 21.5415 31.0659 22.0068 32.252 21.5779C33.4382 21.149 34.1587 19.9445 33.9754 18.6966C33.9351 18.4431 33.8574 18.1969 33.7447 17.9662C34.4661 17.1703 35.0252 16.2412 35.3906 15.2311C37.4627 16.2634 38.9838 18.1449 39.559 20.387ZM30.0201 18.9435C30.0431 18.7054 30.1303 18.4779 30.2724 18.2855C30.3115 18.2332 30.3543 18.1838 30.4004 18.1377C30.7991 17.7413 31.4037 17.6381 31.9112 17.8798C31.3414 18.3322 30.7032 18.6911 30.0206 18.943L30.0201 18.9435ZM32.6619 18.9863C32.702 19.5 32.4401 19.9902 31.9909 20.2427C31.5416 20.4951 30.9868 20.4638 30.5688 20.1625C31.3206 19.875 32.0259 19.4786 32.6623 18.9858L32.6619 18.9863ZM22.6391 7.4621C24.7704 5.32465 28.0344 4.79972 30.7284 6.16125C33.4223 7.52277 34.9355 10.462 34.4787 13.4456C33.5199 13.1555 32.5199 13.0246 31.5186 13.0583C31.2471 13.0691 30.984 13.0959 30.7194 13.127C30.2773 12.8679 29.8141 12.6465 29.3347 12.4653C26.8501 11.5259 24.0814 11.702 21.7359 12.9487C21.3745 13.1429 21.0263 13.3607 20.6934 13.6006C20.2984 11.3592 21.0251 9.06653 22.6391 7.4621ZM18.1052 43.089C17.9794 42.9144 17.9386 42.6925 17.9941 42.4847C18.0307 42.3335 18.1167 42.1988 18.2384 42.102L19.4052 41.1518C19.8487 40.7993 19.9583 40.1708 19.6603 39.689L19.1322 38.8051L20.2115 37.9273C20.6487 37.5652 20.7558 36.938 20.4637 36.4513L20.1988 36.0207C20.0938 35.8499 19.9945 35.6922 19.9314 35.5849L21.0182 34.7005C21.4591 34.3463 21.5695 33.7203 21.2761 33.2368L20.5908 32.0865L21.5449 28.2972C21.6104 28.0371 21.5133 27.763 21.2987 27.6021C18.153 25.262 17.173 20.9835 18.9864 17.5074C20.7999 14.0313 24.8698 12.3873 28.5888 13.6286C27.0593 14.1894 25.7064 15.1464 24.6681 16.4018C22.9799 18.4225 22.2254 21.063 22.591 23.6707C22.9567 26.2782 24.4085 28.6094 26.5875 30.0878L23.0736 44.1047L19.9375 45.6706L18.1052 43.089Z" fill="white"/>
<path fill-rule="evenodd" clip-rule="evenodd" d="M25.0396 30.7872C25.124 30.4327 24.9077 30.0763 24.5543 29.9875C24.2009 29.8987 23.8418 30.1106 23.7487 30.4629L20.7335 42.5026C20.6722 42.7344 20.7403 42.9812 20.9118 43.1488C21.0833 43.3164 21.3317 43.3788 21.5621 43.3121C21.7924 43.2455 21.969 43.0601 22.0246 42.8269L25.0396 30.7872Z" fill="white"/>
</svg>
