<svg width="30" height="30" viewBox="0 0 30 30" fill="none" xmlns="http://www.w3.org/2000/svg">
<path d="M22.6667 28.6667H6.66675C2.9917 28.6667 0 25.675 0 22V16H29.3333V22C29.3333 25.675 26.3416 28.6667 22.6667 28.6667ZM1.33325 17.3333V22C1.33325 24.9417 3.7251 27.3333 6.66675 27.3333H22.6667C25.6084 27.3333 28 24.9417 28 22V17.3333H1.33325Z" fill="white"/>
<path d="M8 28H9.33325V30H8V28Z" fill="white"/>
<path d="M20 28H21.3333V30H20V28Z" fill="white"/>
<path d="M5.33325 16.6667H4V4.66675C4 2.09155 6.09155 0 8.66675 0C11.2417 0 13.3333 2.09155 13.3333 4.66675V5.33325H12V4.66675C12 2.82495 10.5083 1.33325 8.66675 1.33325C6.82495 1.33325 5.33325 2.82495 5.33325 4.66675V16.6667Z" fill="white"/>
<path d="M17.3333 10.6667H8V9.33325C8 6.7583 10.0916 4.66675 12.6667 4.66675C15.2417 4.66675 17.3333 6.7583 17.3333 9.33325V10.6667ZM9.33325 9.33325H16C16 7.4917 14.5083 6 12.6667 6C10.825 6 9.33325 7.4917 9.33325 9.33325Z" fill="white"/>
<path d="M20.6787 22.8322C21.0293 22.8322 21.3135 22.548 21.3135 22.1974C21.3135 21.8468 21.0293 21.5626 20.6787 21.5626C20.3281 21.5626 20.0439 21.8468 20.0439 22.1974C20.0439 22.548 20.3281 22.8322 20.6787 22.8322Z" fill="white"/>
</svg>
