<svg width="41" height="41" viewBox="0 0 41 41" fill="none" xmlns="http://www.w3.org/2000/svg">
<path d="M34.012 12.6436L32.5674 13.266C30.5112 10.0843 27.2705 7.76241 23.6001 6.8613C23.2849 6.78397 22.9673 6.97684 22.89 7.29138C22.813 7.60621 23.0056 7.92411 23.3201 8.00144C26.6378 8.81574 29.575 10.8903 31.4738 13.7373L30.0701 14.3419C29.3442 14.6549 29.2546 15.6511 29.9139 16.0879L33.1846 18.2548C33.7837 18.6518 34.5937 18.3024 34.7166 17.5945L35.3882 13.7293C35.5233 12.9505 34.7383 12.3306 34.012 12.6436ZM33.6064 17.1265L30.8355 15.2904L34.1753 13.8513L33.6064 17.1265Z" fill="white"/>
<path d="M17.7214 34.8778C13.626 34.1833 10.0458 31.6325 8.02744 28.0064L9.65114 27.307C10.3771 26.994 10.4664 25.9979 9.80734 25.5611L6.5367 23.3939C5.93606 22.9962 5.12726 23.3477 5.00469 24.0541L4.33314 27.9196C4.19834 28.6957 4.98085 29.3193 5.70925 29.0053L6.94415 28.4732C9.12387 32.464 13.0401 35.2746 17.5251 36.0354C17.8433 36.0895 18.1475 35.8752 18.2019 35.5549C18.256 35.2351 18.0408 34.9319 17.7214 34.8778ZM5.54572 27.7976L6.11457 24.5224L8.88575 26.3586L5.54572 27.7976Z" fill="white"/>
<path d="M30.6251 18.7432C30.3038 18.7026 30.0101 18.9309 29.9697 19.2525C29.9291 19.574 30.1571 19.8675 30.479 19.9081C35.4378 20.5308 39.1777 24.7756 39.1777 29.7821C39.1777 32.1397 38.353 34.3078 36.9781 36.015C36.4597 35.6479 36.7931 35.8276 31.7059 33.8573V32.961C32.4307 32.3699 32.9402 31.525 33.0988 30.5634C33.9923 30.3812 34.7186 29.6372 34.7186 28.7202C34.7186 28.3131 34.574 27.9224 34.3078 27.5975V26.1398C34.3078 23.3136 32.0085 21.0143 29.1826 21.0143C26.3564 21.0143 24.0572 23.3136 24.0572 26.1398V27.6305C23.7913 27.9496 23.6467 28.3296 23.6467 28.7202C23.6467 29.6329 24.3674 30.3797 25.2652 30.5631C25.4272 31.5654 25.9655 32.4292 26.7394 33.0188V33.8576C26.6609 33.8878 23.0118 35.3025 22.1028 35.6552C22.0988 35.6567 22.0951 35.6583 22.0914 35.6598C22.052 35.676 21.7977 35.7848 21.4728 36.015C20.0976 34.3078 19.2729 32.1397 19.2729 29.7821C19.2729 24.8171 22.9779 20.5769 27.8909 19.9191C28.2121 19.876 28.4377 19.5807 28.3946 19.2592C28.3518 18.9379 28.0559 18.7123 27.735 18.7554C22.2797 19.4863 18.0991 24.1596 18.0991 29.7821C18.0991 35.893 23.0601 40.9081 29.2251 40.9081C35.3617 40.9081 40.3514 35.9196 40.3514 29.7821C40.3514 24.1853 36.1699 19.4398 30.6251 18.7432ZM30.5322 33.6216C30.5322 34.0043 30.5163 34.1366 30.6018 34.3509C30.7501 34.7211 31.0166 34.8491 31.2905 34.9552C31.0704 35.1967 30.8342 35.4547 30.5835 35.727C29.8279 36.549 28.5365 36.5477 27.7815 35.727C27.5391 35.4635 27.3098 35.2132 27.0955 34.9784L27.2878 34.9039C27.9942 34.6297 27.9132 33.9493 27.9132 33.6387C28.7529 33.9114 29.6977 33.9166 30.5322 33.6216ZM26.387 27.504C27.9465 27.5529 29.6619 27.1185 31.1453 26.2064C31.5913 26.6845 31.8563 26.9626 31.978 27.1011V29.9227C31.978 31.448 30.7333 32.67 29.2309 32.67C27.5222 32.67 26.4286 31.3642 26.3891 29.9997C26.3864 29.912 26.387 30.1474 26.387 27.504ZM33.152 29.3056V28.1355C33.373 28.2602 33.5448 28.4751 33.5448 28.7199C33.5448 28.9669 33.3694 29.1824 33.152 29.3056ZM25.231 26.1398C25.231 23.961 27.0035 22.1884 29.1823 22.1884C31.3611 22.1884 33.1337 23.961 33.1337 26.1398V26.7801C33.0851 26.5591 32.9121 26.3754 32.409 25.839C32.2619 25.6822 32.0779 25.4859 31.8474 25.2383C31.5491 24.918 31.0671 24.859 30.7012 25.0984C29.3578 25.9756 27.7081 26.4277 26.1758 26.318C25.7735 26.2877 25.4079 26.531 25.271 26.896C25.2707 26.896 25.2374 26.9042 25.231 26.9058V26.1398ZM24.8204 28.7199C24.8204 28.4882 25.0115 28.2895 25.2132 28.1703V29.3056C24.9977 29.1836 24.8204 28.9681 24.8204 28.7199ZM25.9224 35.4333C26.221 35.7619 26.5542 36.1265 26.9176 36.5218C28.1354 37.8459 30.2298 37.8459 31.4476 36.5215C31.8196 36.1171 32.1601 35.7445 32.464 35.4097C36.2472 36.8748 35.9397 36.7403 36.1803 36.8932C34.2775 38.7547 31.7747 39.7343 29.2254 39.7343C26.7031 39.7343 24.1917 38.7727 22.2703 36.8932C22.4151 36.8014 22.5188 36.7538 22.5359 36.7461L25.9224 35.4333Z" fill="white"/>
<path d="M11.4134 2.143C16.5141 2.143 20.7681 5.96232 21.3085 11.0266C21.3427 11.3488 21.6313 11.5823 21.9544 11.5481C22.2765 11.5136 22.5101 11.2244 22.4755 10.9022C22.1861 8.18819 20.9068 5.68049 18.8742 3.8419C16.8265 1.98925 14.1766 0.969238 11.4134 0.969238C5.27836 0.969238 0.287109 5.96049 0.287109 12.0955C0.287109 18.1261 5.10504 23.0565 11.1111 23.2173C11.1139 23.2173 11.1166 23.2176 11.1194 23.2176C16.7308 23.364 21.5671 19.3038 22.4107 13.792C22.4599 13.4717 22.2399 13.1721 21.9195 13.1232C21.5983 13.0737 21.2996 13.2941 21.2504 13.6144C20.9796 15.3851 20.2341 16.9951 19.1578 18.3229C18.8369 18.0967 18.5862 17.9891 18.5474 17.9732C18.5434 17.9714 18.5397 17.9699 18.5358 17.9683C14.3258 16.3379 15.4568 16.7762 13.8939 16.1707V15.2745C14.6186 14.683 15.1279 13.8385 15.2868 12.8768C16.7137 12.5858 17.4091 11.0251 16.4958 9.91094V8.45321C16.4958 5.627 14.1965 3.32777 11.3706 3.32777C8.54442 3.32777 6.24549 5.627 6.24549 8.45321V9.94395C5.97925 10.2631 5.83467 10.643 5.83467 11.0337C5.83467 11.5252 6.04497 11.9925 6.42675 12.3499C6.71286 12.6176 7.07018 12.7983 7.45318 12.8765C7.61519 13.8788 8.15347 14.7429 8.92742 15.3323V16.171C8.38791 16.3801 5.09282 17.6578 4.29074 17.9686C4.28677 17.9702 4.2831 17.9714 4.27944 17.9732C4.24 17.9894 3.98569 18.0982 3.66076 18.3284C2.28556 16.6213 1.46087 14.4529 1.46087 12.0955C1.46087 6.60758 5.92546 2.143 11.4134 2.143ZM11.4189 14.9835C9.676 14.9835 8.57498 13.6239 8.57498 12.2362V9.8174C10.1278 9.86631 11.8438 9.43562 13.3333 8.51984C13.7851 9.00402 14.0443 9.27606 14.166 9.41423V12.2362C14.166 13.7406 12.9399 14.9835 11.4189 14.9835ZM15.34 11.619V10.4486C15.8609 10.7417 15.863 11.3228 15.34 11.619ZM11.3703 4.50184C13.5494 4.50184 15.322 6.27441 15.322 8.45321V9.09389C15.2905 8.95053 15.2028 8.8301 15.1114 8.71853C14.9463 8.51679 14.714 8.28112 14.0354 7.55149H14.0351C14.0345 7.55057 14.0336 7.54996 14.0327 7.54904C13.7337 7.23054 13.2535 7.17368 12.8892 7.4118C11.5354 8.29609 9.88599 8.74115 8.36407 8.63141C7.96518 8.60146 7.59868 8.8411 7.4593 9.20882C7.44585 9.21218 7.4324 9.21585 7.41895 9.21921V8.45321C7.41895 6.27441 9.19151 4.50184 11.3703 4.50184ZM7.00844 11.0333C7.00844 10.8007 7.20101 10.6027 7.40122 10.4841V11.619C7.18358 11.4958 7.00844 11.28 7.00844 11.0333ZM12.7201 15.935C12.7201 16.4886 12.6728 16.9566 13.4785 17.2687C13.2587 17.5095 13.0224 17.7675 12.7715 18.0405C12.0159 18.8621 10.7241 18.8612 9.96974 18.0405C9.72643 17.7761 9.49718 17.5257 9.28352 17.2919C9.49199 17.2112 9.66041 17.1623 9.838 16.9706C10.1446 16.6393 10.1012 16.3122 10.1012 15.9522C10.895 16.2098 11.845 16.2441 12.7201 15.935ZM8.11037 17.7467C8.40748 18.0738 8.74065 18.4385 9.10562 18.8352C10.3225 20.1588 12.4154 20.1621 13.6356 18.8352C14.0085 18.4293 14.349 18.057 14.652 17.7232L18.1014 19.059C18.1231 19.0687 18.2215 19.1146 18.3576 19.2002C16.4673 21.0409 13.8976 22.1117 11.1658 22.0447C8.7107 21.9833 6.30571 21.0137 4.45825 19.2066C4.60314 19.1149 4.70676 19.0672 4.72388 19.0596L8.11037 17.7467Z" fill="white"/>
</svg>
