<svg width="25" height="23" viewBox="0 0 25 23" fill="none" xmlns="http://www.w3.org/2000/svg">
<path d="M19.991 5.12546C21.4041 5.12546 22.5537 3.97583 22.5537 2.56273C22.5537 1.14963 21.4041 0 19.991 0C18.5779 0 17.4282 1.14963 17.4282 2.56273C17.4282 3.97583 18.5779 5.12546 19.991 5.12546ZM19.991 0.735965C20.9982 0.735965 21.8177 1.55544 21.8177 2.56273C21.8177 3.57002 20.9982 4.38949 19.991 4.38949C18.9837 4.38949 18.1642 3.57002 18.1642 2.56273C18.1642 1.55544 18.9837 0.735965 19.991 0.735965Z" fill="#ED7D3A"/>
<path d="M3.91845 6.19467C4.28457 6.19467 4.64152 6.10803 4.96377 5.94238C5.25477 6.10807 5.58183 6.19467 5.92249 6.19467C6.25765 6.19467 6.57912 6.11102 6.86629 5.95068C7.11784 6.1094 7.40924 6.19467 7.71049 6.19467C8.58624 6.19467 9.2987 5.48221 9.2987 4.60646C9.2987 3.73071 8.58624 3.01825 7.71049 3.01825C7.62154 3.01825 7.53288 3.02585 7.4451 3.04101C7.07918 2.58138 6.51818 2.30524 5.92249 2.30524C5.80998 2.30524 5.69822 2.31486 5.58826 2.3339C5.1563 1.87225 4.56007 1.61182 3.91841 1.61182C2.6549 1.61182 1.62695 2.63976 1.62695 3.90322C1.62695 5.16668 2.65495 6.19467 3.91845 6.19467ZM3.91845 2.34778C4.41013 2.34778 4.8626 2.57318 5.15983 2.96619C5.25345 3.08993 5.41462 3.14169 5.5627 3.09557C5.67859 3.05951 5.79968 3.04121 5.92254 3.04121C6.35278 3.04121 6.75408 3.27323 6.96982 3.64676C7.05946 3.8019 7.24777 3.87 7.41591 3.80789C7.51252 3.77222 7.61163 3.75416 7.71054 3.75416C8.18048 3.75416 8.56279 4.13647 8.56279 4.60641C8.56279 5.07635 8.18048 5.45866 7.71054 5.45866C7.49628 5.45866 7.29094 5.3777 7.13237 5.23071C7.06211 5.1656 6.97232 5.13263 6.88214 5.13263C6.80339 5.13263 6.72435 5.15785 6.65801 5.20882C6.44532 5.37226 6.19102 5.45866 5.92254 5.45866C5.65813 5.45866 5.40707 5.37486 5.19643 5.21623C5.0721 5.12267 4.90249 5.11737 4.77262 5.20293C4.51871 5.37024 4.22334 5.45866 3.9185 5.45866C3.06081 5.45866 2.36302 4.76086 2.36302 3.90322C2.36302 3.04558 3.06076 2.34778 3.91845 2.34778Z" fill="#ED7D3A"/>
<path d="M24.9507 21.8499L18.8733 11.3236C18.7717 11.1476 18.5467 11.0873 18.3707 11.1889C18.1947 11.2905 18.1344 11.5156 18.236 11.6916L23.9947 21.6659H19.6998V20.6673C19.9016 20.64 20.103 20.6045 20.304 20.5609L20.8523 20.4418C21.0847 20.3913 21.26 20.1738 21.26 19.936C21.26 19.8335 21.2172 19.7357 21.142 19.6661C20.8254 19.3728 20.5246 19.0586 20.2434 18.7278L20.5589 18.6592C20.7856 18.61 20.9501 18.4059 20.9501 18.1739C20.9501 18.0714 20.9074 17.9736 20.8322 17.9039C20.5212 17.6159 20.2288 17.3051 19.9588 16.9758L20.2976 16.9022C20.5024 16.8577 20.64 16.667 20.6176 16.4586C20.6031 16.323 20.5239 16.2091 20.4126 16.1461C19.8842 15.6479 19.4329 15.0766 19.0703 14.4469L19.0025 14.3292C18.9369 14.2151 18.8152 14.1448 18.6836 14.1448C18.552 14.1448 18.4303 14.2151 18.3647 14.3292L18.2969 14.4469C17.9344 15.0766 17.483 15.648 16.9546 16.1461C16.8434 16.2091 16.7642 16.3231 16.7496 16.4587C16.7273 16.6671 16.8648 16.8577 17.0696 16.9022L17.4085 16.9758C17.1384 17.3052 16.8461 17.6159 16.535 17.904C16.4598 17.9736 16.4171 18.0715 16.4171 18.174C16.4171 18.4059 16.5816 18.61 16.8083 18.6592L17.1239 18.7278C16.8427 19.0586 16.5419 19.3728 16.2252 19.6661C16.15 19.7357 16.1072 19.8336 16.1072 19.936C16.1072 20.1739 16.2825 20.3913 16.515 20.4418L17.0633 20.5609C17.293 20.6108 17.5234 20.6494 17.7542 20.6779V21.6659H13.7148V20.1944C13.9828 20.1602 14.2502 20.1148 14.5169 20.0569L15.1867 19.9114C15.4341 19.8577 15.6205 19.6263 15.6205 19.3732C15.6205 19.2708 15.5778 19.1729 15.5026 19.1033C15.0804 18.7123 14.6812 18.2911 14.3109 17.8464L14.8285 17.734C15.0643 17.6828 15.242 17.4622 15.242 17.2209C15.242 17.1184 15.1993 17.0206 15.1241 16.9509C14.7091 16.5666 14.3211 16.1493 13.9659 15.7058L14.5093 15.5878C14.7186 15.5423 14.8592 15.3474 14.8363 15.1344C14.8211 14.9925 14.7367 14.8739 14.6187 14.8105C13.9642 14.1948 13.4052 13.4881 12.9567 12.7091L12.8739 12.5652C12.8083 12.4511 12.6867 12.3808 12.555 12.3808C12.555 12.3808 12.555 12.3808 12.555 12.3808C12.4234 12.3808 12.3018 12.4511 12.2361 12.5651L12.1532 12.709C11.8224 13.2838 11.431 13.8187 10.9859 14.3072L9.13446 11.1005L10.6906 8.40515L12.1398 7.97447L13.2602 8.39205C13.4268 8.45417 13.6097 8.45226 13.775 8.38676L14.8145 7.97476L16.3399 8.40746L17.4471 10.3253C17.5153 10.4434 17.639 10.5094 17.7662 10.5094C17.8286 10.5094 17.8919 10.4935 17.9498 10.46C18.1258 10.3584 18.1861 10.1333 18.0845 9.95735L14.4181 3.60686C14.2295 3.28019 13.8917 3.08521 13.5146 3.08521C13.1374 3.08521 12.7997 3.28019 12.6111 3.60686L8.70956 10.3645L8.39913 9.82684C8.25218 9.5723 7.98895 9.4203 7.69501 9.4203C7.40106 9.4203 7.13788 9.57225 6.99089 9.82679L3.66192 15.5928C3.56031 15.7688 3.62061 15.9938 3.7966 16.0955C3.85455 16.1289 3.91784 16.1448 3.98025 16.1448C4.10742 16.1448 4.23112 16.0788 4.29927 15.9608L5.91756 13.1578L6.78452 12.9001L7.48349 13.1607C7.62249 13.2125 7.77498 13.211 7.9129 13.1563L8.5584 12.9004L9.47379 13.1601L10.4439 14.8404C10.3511 14.9077 10.2867 15.0123 10.2736 15.1343C10.2507 15.3473 10.3914 15.5423 10.6007 15.5877L11.144 15.7057C10.7888 16.1492 10.4008 16.5664 9.98582 16.9507C9.91061 17.0204 9.86787 17.1182 9.86787 17.2207C9.86787 17.462 10.0457 17.6826 10.2815 17.7339L10.7991 17.8463C10.4287 18.291 10.0294 18.7122 9.60734 19.1031C9.53213 19.1728 9.48939 19.2707 9.48939 19.3731C9.48939 19.6262 9.67588 19.8576 9.92322 19.9113L10.593 20.0568C10.8949 20.1223 11.1978 20.172 11.5012 20.2072V21.6659H7.5803V20.6673C7.78205 20.6399 7.98351 20.6045 8.18443 20.5608L8.73272 20.4417C8.96514 20.3912 9.14044 20.1738 9.14044 19.936C9.14044 19.8335 9.09771 19.7356 9.02249 19.666C8.70588 19.3728 8.40507 19.0586 8.12388 18.7277L8.43941 18.6592C8.66609 18.61 8.8306 18.4058 8.8306 18.1739C8.8306 18.0714 8.78787 17.9735 8.71265 17.9039C8.40168 17.6158 8.10931 17.3051 7.83926 16.9757L8.1781 16.9021C8.38289 16.8576 8.52047 16.667 8.49809 16.4586C8.48352 16.323 8.40438 16.2091 8.2931 16.146C7.76473 15.6479 7.31334 15.0765 6.9508 14.4469L6.88299 14.3291C6.81735 14.2151 6.69572 14.1448 6.56408 14.1448C6.43244 14.1448 6.31081 14.2151 6.24516 14.3291L6.1774 14.4469C5.81486 15.0766 5.36347 15.6479 4.8351 16.1461C4.72382 16.2091 4.64468 16.323 4.63011 16.4586C4.60773 16.667 4.74526 16.8577 4.9501 16.9022L5.28894 16.9758C5.01889 17.3051 4.72652 17.6159 4.4155 17.9039C4.34028 17.9735 4.29755 18.0714 4.29755 18.1739C4.29755 18.4059 4.46211 18.61 4.68874 18.6592L5.00432 18.7277C4.72313 19.0586 4.42227 19.3728 4.10566 19.666C4.03044 19.7356 3.98771 19.8335 3.98771 19.936C3.98771 20.1739 4.16301 20.3913 4.39543 20.4418L4.94378 20.5609C5.17349 20.6108 5.4039 20.6494 5.6347 20.6779V21.6659H1.00543L3.55648 17.2474C3.65809 17.0714 3.59779 16.8463 3.4218 16.7447C3.24581 16.6431 3.02075 16.7034 2.91913 16.8794L0.0493606 21.8499C-0.0522517 22.0259 0.0080484 22.2509 0.184042 22.3525C0.241987 22.386 0.30528 22.4019 0.36769 22.4019C0.394038 22.4019 24.632 22.4018 24.632 22.4018C24.7635 22.4018 24.8849 22.3317 24.9506 22.2178C25.0164 22.104 25.0164 21.9637 24.9507 21.8499ZM13.2484 3.97484C13.3285 3.83613 13.4612 3.82117 13.5145 3.82117C13.5679 3.82117 13.7006 3.83613 13.7807 3.97484L15.8116 7.49256L15.0093 7.26495C14.8584 7.22216 14.695 7.23036 14.5492 7.2882L13.5105 7.6999L12.3911 7.28266C12.3108 7.25273 12.2255 7.23767 12.1402 7.23767C12.0714 7.23767 12.0024 7.24748 11.9362 7.26716L11.2257 7.47828L13.2484 3.97484ZM17.1219 19.8205C17.4665 19.4692 17.7901 19.0948 18.0878 18.7027C18.1666 18.5989 18.1846 18.4611 18.1351 18.3405C18.0856 18.2199 17.976 18.1345 17.847 18.1159C17.7078 18.0959 17.5719 18.0717 17.443 18.0438C17.7764 17.6975 18.086 17.3264 18.367 16.9356C18.4429 16.83 18.4575 16.6924 18.4054 16.5733C18.3534 16.4542 18.2423 16.3714 18.1133 16.3555C18.0168 16.3436 17.9211 16.3289 17.8277 16.3116C18.1435 15.9734 18.4297 15.6091 18.6837 15.2222C18.9377 15.6091 19.2239 15.9733 19.5396 16.3116C19.4462 16.3289 19.3505 16.3436 19.254 16.3555C19.125 16.3714 19.014 16.4542 18.9619 16.5733C18.9098 16.6924 18.9244 16.83 19.0003 16.9356C19.2813 17.3264 19.5909 17.6975 19.9243 18.0438C19.7954 18.0717 19.6595 18.0959 19.5203 18.1159C19.3913 18.1345 19.2817 18.2199 19.2322 18.3405C19.1827 18.4611 19.2007 18.5988 19.2795 18.7027C19.5772 19.0949 19.9007 19.4692 20.2453 19.8205L20.1477 19.8417C19.1762 20.0527 18.191 20.0527 17.2195 19.8417L17.1219 19.8205ZM18.4902 20.7334C18.5547 20.7351 18.6191 20.736 18.6836 20.736C18.777 20.736 18.8704 20.7336 18.9639 20.7301V21.6659H18.4902V20.7334ZM8.71442 12.1797C8.58857 12.144 8.45227 12.1508 8.33069 12.1991L7.69099 12.4526L6.99844 12.1945C6.8775 12.1494 6.74272 12.1448 6.61908 12.1816L6.45265 12.231L7.62828 10.1948C7.64668 10.1629 7.67475 10.1563 7.69501 10.1563C7.71532 10.1563 7.74334 10.1629 7.76174 10.1948L8.94561 12.2453L8.71442 12.1797ZM10.485 19.2802C10.9425 18.8234 11.3708 18.3331 11.7622 17.8174C11.841 17.7135 11.859 17.5758 11.8095 17.4552C11.76 17.3346 11.6505 17.2492 11.5214 17.2307C11.3462 17.2054 11.1753 17.1749 11.0136 17.1397L10.8785 17.1104C11.3223 16.6605 11.7325 16.1746 12.102 15.6606C12.1779 15.5551 12.1925 15.4174 12.1404 15.2983C12.0883 15.1792 11.9772 15.0965 11.8483 15.0806C11.6779 15.0596 11.5099 15.0314 11.3487 14.997C11.8004 14.5274 12.2041 14.0148 12.5549 13.4653C12.9058 14.0148 13.3094 14.5274 13.7611 14.997C13.6 15.0314 13.4321 15.0596 13.2616 15.0806C13.1326 15.0965 13.0216 15.1792 12.9695 15.2983C12.9174 15.4174 12.932 15.5551 13.0078 15.6606C13.3774 16.1745 13.7876 16.6605 14.2315 17.1104L14.0963 17.1397C13.9346 17.1749 13.7637 17.2054 13.5885 17.2307C13.4595 17.2492 13.3499 17.3346 13.3004 17.4552C13.2509 17.5758 13.2689 17.7135 13.3477 17.8174C13.7391 18.333 14.1674 18.8234 14.625 19.2802L14.3606 19.3376C13.1624 19.5978 11.9474 19.5979 10.7492 19.3376L10.485 19.2802ZM12.2372 20.2627C12.3431 20.2664 12.4491 20.2689 12.555 20.2689C12.6963 20.2689 12.8376 20.265 12.9788 20.2584V21.6659H12.2372V20.2627H12.2372ZM5.00246 19.8205C5.34699 19.4693 5.67057 19.0949 5.96829 18.7027C6.04709 18.5989 6.06509 18.4611 6.01559 18.3405C5.96613 18.2199 5.85652 18.1345 5.72748 18.1159C5.58828 18.0959 5.45238 18.0717 5.32344 18.0438C5.65688 17.6975 5.96642 17.3264 6.24751 16.9356C6.32337 16.83 6.33799 16.6924 6.28588 16.5733C6.23378 16.4542 6.12279 16.3714 5.9938 16.3555C5.89724 16.3436 5.80162 16.3289 5.7082 16.3116C6.02393 15.9734 6.31012 15.6091 6.56412 15.2222C6.81818 15.6091 7.10437 15.9733 7.42005 16.3116C7.32663 16.3289 7.23106 16.3436 7.13445 16.3555C7.00546 16.3714 6.89443 16.4542 6.84237 16.5733C6.79031 16.6924 6.80488 16.83 6.88074 16.9356C7.16178 17.3264 7.47132 17.6975 7.80482 18.0438C7.67583 18.0717 7.53992 18.0959 7.40077 18.1159C7.27173 18.1345 7.16217 18.2199 7.11266 18.3405C7.06316 18.4611 7.08116 18.5989 7.15996 18.7027C7.45768 19.0949 7.78122 19.4693 8.12574 19.8205L8.02821 19.8417C7.05673 20.0527 6.07152 20.0527 5.1 19.8417L5.00246 19.8205ZM6.37071 20.7334C6.43518 20.7351 6.49965 20.736 6.56412 20.736C6.65754 20.736 6.75096 20.7336 6.84438 20.7301V21.6659H6.37071V20.7334Z" fill="#ED7D3A"/>
</svg>
